<?xml version="1.0" encoding="UTF-8"?>
<svg id="Layer_1" data-name="Layer 1" xmlns="http://www.w3.org/2000/svg" width="210" height="84" viewBox="0 0 210 84">
  <defs>
    <style>
      .cls-1 {
        fill: #e62b51;
      }

      .cls-1, .cls-2, .cls-3 {
        stroke-width: 0px;
      }

      .cls-2 {
        fill: #2e054e;
      }

      .cls-3 {
        fill: #fff;
      }
    </style>
  </defs>
  <path class="cls-3" d="M72.94,40.5c-.1,0-.2,0-.29.03-.1.02-.19.05-.28.09-.09.04-.18.08-.26.14-.08.05-.16.12-.23.19s-.13.15-.19.23c-.05.08-.1.17-.14.26-.04.09-.07.19-.09.28-.02.1-.03.2-.03.29s0,.2.03.29c.02.1.05.19.09.28.04.09.08.18.14.26.05.08.12.16.19.23s.15.13.23.19c.08.05.17.1.26.14.09.04.19.07.28.09.1.02.19.03.29.03s.2,0,.29-.03c.1-.02.19-.05.28-.09.09-.04.18-.08.26-.14.08-.05.16-.12.23-.19.07-.07.13-.15.19-.23.05-.08.1-.17.14-.26.04-.09.07-.19.09-.28.02-.1.03-.19.03-.29h0c0-.1-.01-.2-.03-.3-.02-.1-.05-.19-.09-.28-.04-.09-.08-.18-.14-.26-.05-.08-.12-.16-.19-.23-.07-.07-.15-.13-.23-.19-.08-.05-.17-.1-.26-.14-.09-.04-.19-.07-.28-.09-.1-.02-.19-.03-.29-.03"/>
  <path class="cls-3" d="M36.24,40.5c-.1,0-.2,0-.29.03-.1.02-.19.05-.28.09-.09.04-.18.08-.26.14-.08.05-.16.12-.23.19-.07.07-.13.15-.19.23-.05.08-.1.17-.14.26-.04.09-.07.19-.09.28-.02.1-.03.2-.03.29s.01.2.03.29c.02.1.05.19.09.28.04.09.08.18.14.26.05.08.12.16.19.23.07.07.15.13.23.19.08.05.17.1.26.14.09.04.19.07.28.09.1.02.19.03.29.03s.2,0,.29-.03c.1-.02.19-.05.28-.09.09-.04.18-.08.26-.14.08-.05.16-.12.23-.19.07-.07.13-.15.19-.23.05-.08.1-.17.14-.26.04-.09.07-.19.09-.28.02-.1.03-.19.03-.29h0c0-.1,0-.2-.03-.3-.02-.1-.05-.19-.09-.28-.04-.09-.08-.18-.14-.26-.05-.08-.12-.16-.19-.23-.07-.07-.15-.13-.23-.19-.08-.05-.17-.1-.26-.14-.09-.04-.19-.07-.28-.09-.1-.02-.19-.03-.29-.03h0Z"/>
  <path class="cls-3" d="M56.93,39.68c-2.29-.56-3.75-1.05-4.38-1.47-.3-.17-.53-.41-.7-.71-.17-.3-.25-.62-.25-.96-.01-.33.05-.64.19-.94.14-.3.33-.55.59-.75.31-.23.64-.39,1-.5.36-.11.74-.15,1.12-.13,2.23,0,4.39.79,6.49,2.38l3.05-.65-.32-3.28c-1.25-1.05-2.66-1.83-4.21-2.35-1.56-.55-3.17-.82-4.83-.83-2.46,0-4.51.62-6.16,1.86-1.65,1.24-2.47,3.01-2.47,5.3s.65,3.97,1.95,5.04c1.3,1.07,3.35,1.94,6.16,2.61,1.77.44,2.96.87,3.56,1.29.29.19.51.44.67.75.16.31.23.63.23.98.01.34-.06.66-.21.97-.15.31-.36.56-.64.76-.7.47-1.48.69-2.33.64-2.21,0-4.61-1.14-7.2-3.41l.02,3.28-3.21.67c3.05,2.81,6.48,4.22,10.29,4.22,2.64,0,4.78-.67,6.4-2.02.39-.31.74-.67,1.05-1.07.31-.4.57-.82.78-1.28.21-.46.37-.93.47-1.42.1-.49.14-.99.13-1.49,0-2.16-.63-3.81-1.9-4.93-1.27-1.13-3.04-1.97-5.33-2.54"/>
  <path class="cls-1" d="M72.94,43.51c-.1,0-.2,0-.29-.03-.1-.02-.19-.05-.28-.09-.09-.04-.18-.08-.26-.14s-.16-.12-.23-.19c-.07-.07-.13-.15-.19-.23-.05-.08-.1-.17-.14-.26-.04-.09-.07-.19-.09-.28-.02-.1-.03-.19-.03-.29s0-.2.03-.29c.02-.1.05-.19.09-.28.04-.09.08-.18.14-.26.05-.08.12-.16.19-.23.07-.07.15-.13.23-.19.08-.05.17-.1.26-.14.09-.04.19-.07.28-.09.1-.02.19-.03.29-.03s.2,0,.29.03c.1.02.19.05.28.09.09.04.18.08.26.14.08.06.16.12.23.19.07.07.13.15.19.23.05.08.1.17.14.26.04.09.07.19.09.28.02.1.03.19.03.29s0,.2-.03.29c-.02.1-.05.19-.09.28-.04.09-.08.18-.14.26-.05.08-.12.16-.19.23-.07.07-.15.13-.23.19-.08.05-.17.1-.26.14-.09.04-.19.07-.28.09-.1.02-.19.03-.29.03M48.23,46.27c2.59,2.27,4.99,3.41,7.2,3.41.85.05,1.62-.16,2.33-.64.28-.2.49-.45.64-.76.15-.31.22-.63.21-.97,0-.35-.07-.67-.23-.98-.16-.31-.38-.56-.67-.75-.6-.42-1.79-.86-3.56-1.29-2.81-.67-4.86-1.54-6.16-2.61-1.3-1.07-1.95-2.75-1.95-5.04,0-2.29.82-4.05,2.47-5.3,1.64-1.24,3.7-1.86,6.16-1.86,1.66,0,3.27.28,4.83.83,1.55.52,2.96,1.3,4.21,2.35l.32,3.28-3.05.65c-2.09-1.59-4.25-2.38-6.49-2.38-.38-.02-.75.02-1.12.13-.36.11-.7.28-1,.5-.25.21-.45.46-.59.75-.14.3-.2.61-.19.94,0,.34.08.67.25.96.17.3.4.54.7.71.63.41,2.09.9,4.38,1.47,2.29.56,4.07,1.41,5.33,2.54,1.27,1.13,1.9,2.77,1.9,4.93.01.5-.03,1-.13,1.49-.1.49-.26.97-.47,1.42-.21.46-.47.88-.78,1.28-.31.4-.66.75-1.05,1.07-1.62,1.35-3.76,2.02-6.4,2.02-3.81,0-7.24-1.41-10.29-4.22l3.21-.67-.02-3.27ZM36.24,40.5c.1,0,.2,0,.29.03.1.02.19.05.28.09.09.04.18.08.26.14.08.05.16.12.23.19.07.07.13.15.19.23.05.08.1.17.14.26.04.09.07.19.09.28.02.1.03.19.03.29s0,.2-.03.29c-.02.1-.05.19-.09.28-.04.09-.08.18-.14.26-.05.08-.12.16-.19.23-.07.07-.15.13-.23.19-.08.05-.17.1-.26.14-.09.04-.19.07-.28.09-.1.02-.19.03-.29.03-.1,0-.2,0-.29-.03-.1-.02-.19-.05-.28-.09-.09-.04-.18-.08-.26-.14-.08-.05-.16-.12-.23-.19s-.13-.15-.19-.23c-.05-.08-.1-.17-.14-.26-.04-.09-.07-.19-.09-.28-.02-.1-.03-.19-.03-.29h0c0-.1,0-.2.03-.3.02-.1.05-.19.09-.28.04-.09.08-.18.14-.26.05-.08.12-.16.19-.23.07-.07.15-.13.23-.19.08-.05.17-.1.26-.14.09-.04.19-.07.28-.09.1-.02.19-.03.29-.03M77.58,38.22l-19.17-19.18c-.25-.25-.52-.47-.81-.66-.29-.19-.6-.36-.92-.49-.32-.13-.66-.23-1-.3-.34-.07-.69-.1-1.04-.1s-.7.03-1.04.1c-.34.07-.68.17-1,.3-.32.13-.63.3-.92.49-.29.19-.56.41-.81.66l-19.17,19.18c-.25.25-.47.52-.66.81-.19.29-.36.6-.49.93-.13.32-.23.66-.3,1s-.1.69-.1,1.04.03.7.1,1.04.17.68.3,1c.13.32.3.63.49.92.19.29.42.56.66.81l19.17,19.17c.25.25.52.47.81.66.29.19.6.36.92.49.32.13.66.23,1,.3.34.07.69.1,1.04.1s.7-.03,1.04-.1c.34-.07.68-.17,1-.3.32-.13.63-.3.92-.49.29-.19.56-.42.81-.66l19.17-19.17c.25-.25.47-.52.66-.81.19-.29.36-.6.49-.92.13-.32.24-.66.3-1,.07-.34.1-.69.1-1.04s-.03-.7-.1-1.04c-.07-.34-.17-.68-.3-1-.13-.32-.3-.63-.49-.93-.19-.29-.41-.56-.66-.81"/>
  <path class="cls-2" d="M102.41,37.25c-1.2-1.09-2.35-1.38-3.21-1.38-.54,0-1.32.08-1.81.49-.21.17-.37.37-.48.62-.12.24-.17.49-.18.76,0,.26.05.5.17.73.12.23.28.42.49.56.4.34.92.57,1.86,1l1.12.52c.99.41,1.83,1.02,2.52,1.83.34.42.59.89.76,1.4.17.51.24,1.04.21,1.58.01.91-.15,1.79-.48,2.64-.33.85-.81,1.6-1.44,2.26-1.55,1.52-3.52,1.86-5.47,1.86-1.35.06-2.62-.23-3.81-.86-.96-.54-1.81-1.22-2.55-2.03l2.46-3.15c.45.6.99,1.1,1.61,1.52.69.42,1.43.63,2.23.63.76,0,1.47-.2,2.12-.6.26-.22.47-.48.61-.8.14-.31.21-.64.2-.98,0-.25-.04-.49-.13-.72-.09-.23-.23-.43-.41-.6-.45-.39-.95-.67-1.52-.86l-1.12-.46c-1.01-.39-1.9-.96-2.69-1.69-.42-.43-.74-.93-.96-1.49-.22-.56-.32-1.15-.3-1.75-.02-.81.12-1.59.42-2.34.3-.75.73-1.41,1.3-1.99,1.55-1.52,3.52-1.81,5.16-1.81,1-.02,1.98.13,2.93.45.95.33,1.82.8,2.6,1.44l-2.21,3.21Z"/>
  <path class="cls-2" d="M111.86,43.01c-.34.34-.61.73-.79,1.18-.18.45-.26.91-.24,1.4,0,.19,0,.37.03.56.03.18.07.37.14.54.06.18.14.34.24.5s.21.31.33.45c.13.14.26.26.41.37.15.11.31.21.48.29.17.08.34.14.52.19.18.04.36.07.55.08.07,0,.15,0,.22,0,.42,0,.83-.07,1.23-.23.4-.15.75-.37,1.06-.66.36-.37.64-.79.83-1.27.2-.48.3-.97.31-1.48,0-.18,0-.37-.03-.55-.03-.18-.08-.36-.14-.53-.06-.17-.14-.34-.24-.49-.1-.16-.21-.3-.33-.44-.12-.13-.26-.26-.41-.36-.15-.11-.31-.2-.47-.28-.17-.08-.34-.14-.52-.18-.18-.04-.36-.07-.54-.07-.08,0-.16,0-.24,0-.45-.01-.89.07-1.31.23-.42.17-.79.42-1.1.74h0ZM109.49,58.26h-4.13l2.38-19.34h4.12l-.23,1.49c.45-.55.98-.99,1.6-1.32.83-.42,1.71-.62,2.64-.6,1.98,0,3.18.75,3.87,1.41,1.03,1.03,1.69,2.81,1.69,4.79,0,2.44-.89,4.47-2.15,5.73-.28.29-.59.54-.92.76-.33.22-.69.41-1.06.56-.37.15-.76.26-1.15.32-.4.07-.79.09-1.19.08-.97.05-1.9-.14-2.78-.54-.67-.36-1.22-.84-1.66-1.46l-1.03,8.14Z"/>
  <path class="cls-2" d="M127.68,32.19c.16,0,.31.02.47.05.15.03.31.08.45.14.15.06.28.13.42.22.13.09.25.19.36.3.11.11.21.23.3.36.09.13.16.27.22.42.06.15.11.3.14.45.03.15.05.31.05.47s-.02.31-.05.47c-.03.16-.08.31-.14.45-.06.15-.13.28-.22.42-.09.13-.19.25-.3.36s-.23.21-.36.3c-.13.09-.27.16-.42.22-.15.06-.3.11-.45.14-.16.03-.31.05-.47.05s-.31-.02-.47-.05c-.16-.03-.31-.08-.45-.14-.15-.06-.28-.13-.42-.22-.13-.09-.25-.19-.36-.3-.11-.11-.21-.23-.3-.36-.09-.13-.16-.27-.22-.42-.06-.15-.11-.3-.14-.45-.03-.16-.05-.31-.05-.47,0-.16.01-.31.04-.47.03-.15.07-.3.13-.45.06-.15.13-.28.22-.41.09-.13.18-.25.29-.36.11-.11.23-.21.36-.3.13-.09.27-.16.41-.22.14-.06.29-.11.45-.14.15-.03.31-.05.46-.05h.04ZM129.2,39.26l-1.58,12.78h-4.13l1.58-12.78h4.13Z"/>
  <path class="cls-2" d="M136.85,39.26l-.2,1.41c.46-.49.98-.89,1.58-1.2.79-.42,1.63-.6,2.52-.54,1.06,0,2.35.14,3.32,1.09,1,.97,1.09,2.26,1.09,3.04-.02.82-.08,1.63-.2,2.44l-.77,6.56h-4.13l.69-5.53c.1-.68.16-1.37.17-2.06.02-.28-.02-.56-.11-.82-.09-.27-.22-.51-.41-.72-.21-.19-.44-.33-.71-.42-.26-.09-.53-.14-.81-.12-.34-.02-.68.03-1,.15-.32.12-.61.3-.86.54-.74.77-.92,2.01-1,2.69l-.75,6.31h-4.12l1.58-12.78h4.13Z"/>
  <path class="cls-2" d="M153.09,39.26l-.2,1.41c.46-.49.98-.89,1.58-1.2.79-.42,1.63-.6,2.52-.54,1.06,0,2.35.14,3.32,1.09,1,.97,1.09,2.26,1.09,3.04-.02.82-.08,1.63-.2,2.44l-.77,6.56h-4.13l.69-5.53c.1-.68.16-1.37.17-2.06.02-.28-.02-.56-.11-.82-.09-.27-.22-.51-.41-.72-.21-.19-.44-.33-.71-.42-.26-.09-.53-.14-.81-.12-.34-.02-.68.03-1,.15-.32.12-.61.3-.86.54-.74.77-.92,2.01-1,2.69l-.74,6.31h-4.13l1.58-12.78h4.13Z"/>
  <polygon class="cls-2" points="168.16 50.06 163.21 38.91 167.9 38.91 170.74 45.91 175.04 38.91 179.88 38.91 167.54 58.26 162.89 58.26 168.16 50.06"/>
</svg>