<?xml version="1.0" encoding="UTF-8"?>
<svg id="Layer_1" data-name="Layer 1" xmlns="http://www.w3.org/2000/svg" width="210" height="84" xmlns:xlink="http://www.w3.org/1999/xlink" viewBox="0 0 210 84">
  <defs>
    <style>
      .cls-1 {
        fill: url(#linear-gradient);
        fill-rule: evenodd;
        stroke-width: 0px;
      }
    </style>
    <linearGradient id="linear-gradient" x1="52.83" y1="42" x2="165.27" y2="42" gradientUnits="userSpaceOnUse">
      <stop offset="0" stop-color="#007cbe"/>
      <stop offset="1" stop-color="#00609d"/>
    </linearGradient>
  </defs>
  <path class="cls-1" d="M115.51,21.21h-21.06v16.17c0,.57-.47,1.04-1.04,1.04h-7.41c-.57,0-1.04-.47-1.04-1.04v-19.96c0-2,1.64-3.64,3.64-3.64h32.77c2,0,3.64,1.64,3.64,3.64v19.96c0,.57-.47,1.04-1.04,1.04h-7.41c-.57,0-1.04-.47-1.04-1.04v-16.17h0ZM106.49,31.5h1.15c1.59,0,2.89-1.3,2.89-2.89v-1.09c0-1.59-1.3-2.89-2.89-2.89h-6.23v12.97c0,.29.23.52.52.52h4.04c.29,0,.52-.23.52-.52v-6.11h0ZM77.64,51.11h-8.79v6.75c0,.24-.2.43-.43.43h-3.1c-.24,0-.43-.2-.43-.43v-8.33c0-.83.68-1.52,1.52-1.52h13.68c.83,0,1.52.68,1.52,1.52v8.33c0,.24-.2.43-.43.43h-3.1c-.24,0-.43-.2-.43-.43v-6.75h0ZM73.87,55.4h.48c.66,0,1.21-.54,1.21-1.21v-.46c0-.66-.54-1.21-1.21-1.21h-2.6v5.42c0,.12.1.22.22.22h1.69c.12,0,.22-.1.22-.22v-2.55h0ZM130.96,48.19h1.84c2.61,0,4.74,2.09,4.74,4.64v.63c0,2.55-2.13,4.64-4.74,4.64h-1.84c-2.61,0-4.74-2.09-4.74-4.64v-.63c0-2.55,2.13-4.64,4.74-4.64h0ZM131.88,50.11h0c.74,0,1.34.59,1.34,1.31v3.44c0,.72-.6,1.31-1.34,1.31h0c-.74,0-1.34-.59-1.34-1.31v-3.44c0-.72.6-1.31,1.34-1.31h0ZM118.55,48.19h1.84c2.61,0,4.74,2.09,4.74,4.64v.63c0,2.55-2.13,4.64-4.74,4.64h-1.84c-2.61,0-4.74-2.09-4.74-4.64v-.63c0-2.55,2.13-4.64,4.74-4.64h0ZM119.47,50.11h0c.74,0,1.34.59,1.34,1.31v3.44c0,.72-.6,1.31-1.34,1.31h0c-.74,0-1.34-.59-1.34-1.31v-3.44c0-.72.6-1.31,1.34-1.31h0ZM87.12,48.61c.02-.29-.23-.42-.44-.42h-2.22c-.55,0-1,.45-1,1v5.8c0,1.13.68,2.39,1.82,2.9.7.31,2.11.32,2.83.13.55-.14.83-.38,1.3-.25.2.34.62.32,1.05.32h1.48c.61.01,1.22-.63,1.22-1.21v-7.65c0-.86-.24-1.04-1.04-1.04h-1.54c-1.31,0-1.28,1.1-1.29,1.1v5.73c0,1.55-2.2,1.35-2.2-.03v-6.38h0ZM103.96,45.06c-.92.01-1.16.5-1.14,1.16v10.88c0,.86.24,1.04,1.04,1.04h1.54c1.31,0,1.28-1.1,1.29-1.1v-5.73c0-1.55,2.13-1.34,2.13.05v6.38c-.03.29.3.4.5.4h2.22c.55,0,1-.45,1-1v-5.8c0-1.13-.68-2.39-1.82-2.9-.7-.31-2.1-.3-2.83-.13-.63.14-1.02.35-1.33.1v-2.84c0-.35-.03-.53-.62-.52h-1.96ZM96.52,45.06h1.72c.28,0,.5.23.5.5v2.67h1.7c.43,0,.78.35.78.78v.98c0,.43-.35.78-.78.78h-1.7v3.7c.03,1.08.89,1.22,1.91.92v2.03c-.34.56-.61.71-1.91.72h-.96c-1.52,0-2.77-1.25-2.77-2.77v-8.8c0-.83.68-1.51,1.51-1.51h0ZM140.42,45.06h1.72c.28,0,.5.23.5.5v2.67h1.7c.43,0,.78.35.78.78v.98c0,.43-.35.78-.78.78h-1.7v3.7c.03,1.08.89,1.22,1.91.92v2.03c-.34.56-.61.71-1.91.72h-.96c-1.52,0-2.77-1.25-2.77-2.77v-8.8c0-.83.68-1.51,1.51-1.51h0ZM109.34,47.1v-1.68h.83c.15,0,.26,0,.33.02.11.01.2.04.27.08.07.04.13.09.18.16.04.07.07.15.07.23,0,.14-.06.26-.18.36-.12.1-.33.15-.64.15h-.56v.69h-.29ZM109.63,46.21h.57c.19,0,.32-.03.4-.08.08-.05.12-.13.12-.23,0-.07-.02-.13-.07-.18-.05-.05-.11-.08-.18-.1-.05,0-.14-.01-.27-.01h-.56v.6h0ZM112.03,47.1l.84-1.68h.32l.89,1.68h-.33l-.25-.51h-.92l-.24.51h-.31ZM112.66,46.41h.75l-.23-.47c-.07-.14-.12-.26-.16-.35-.03.11-.07.22-.12.32l-.24.49h0ZM115.44,47.1v-1.68h.83c.15,0,.26,0,.33.02.11.01.2.04.27.08.07.04.13.09.18.16.04.07.07.15.07.23,0,.14-.06.26-.18.36-.12.1-.33.15-.64.15h-.56v.69h-.29ZM115.73,46.21h.57c.19,0,.32-.03.4-.08.08-.05.12-.13.12-.23,0-.07-.02-.13-.07-.18-.05-.05-.11-.08-.18-.1-.05,0-.14-.01-.27-.01h-.56v.6h0ZM118.6,47.1v-1.68h.83c.15,0,.26,0,.33.02.11.01.2.04.27.08.07.04.13.09.18.16.04.07.07.15.07.23,0,.14-.06.26-.18.36-.12.1-.33.15-.64.15h-.56v.69h-.29ZM118.89,46.21h.57c.19,0,.32-.03.4-.08.08-.05.12-.13.12-.23,0-.07-.02-.13-.07-.18-.05-.05-.11-.08-.18-.1-.05,0-.14-.01-.27-.01h-.56v.6h0ZM121.3,47.1l.84-1.68h.32l.89,1.68h-.33l-.25-.51h-.92l-.24.51h-.31ZM121.93,46.41h.75l-.23-.47c-.07-.14-.12-.26-.16-.35-.03.11-.07.22-.12.32l-.24.49h0ZM126.26,46.51l.29.06c-.06.18-.17.32-.33.42-.16.1-.35.14-.58.14s-.43-.04-.57-.11c-.15-.07-.26-.18-.34-.32-.08-.14-.12-.29-.12-.45,0-.18.04-.33.13-.46.09-.13.21-.23.37-.3.16-.07.34-.1.53-.1.22,0,.4.04.55.13.15.09.25.21.31.36l-.28.05c-.05-.12-.12-.21-.22-.27-.1-.06-.22-.08-.36-.08-.17,0-.31.03-.42.09-.11.06-.19.15-.24.25-.05.1-.07.21-.07.32,0,.14.03.27.08.37.05.11.14.19.25.24.11.05.24.08.37.08.16,0,.3-.04.41-.11.11-.07.19-.18.23-.32h0ZM128.04,47.1v-1.68h.29v.69h1.13v-.69h.29v1.68h-.29v-.79h-1.13v.79h-.29ZM131.12,47.1l.84-1.68h.32l.89,1.68h-.33l-.25-.51h-.92l-.24.51h-.31ZM131.75,46.41h.75l-.23-.47c-.07-.14-.12-.26-.16-.35-.03.11-.07.22-.12.32l-.24.49h0ZM134.52,47.1v-1.68h.3l1.15,1.32v-1.32h.28v1.68h-.3l-1.15-1.32v1.32h-.28ZM137.32,63.68v2.21h1.42c.77,0,1.31-.09,1.6-.27.29-.19.44-.49.44-.91,0-.36-.13-.62-.4-.79-.26-.16-.71-.24-1.36-.24h-1.71ZM135.47,62.37h3.76c1.15,0,2,.19,2.55.56.56.38.84.95.84,1.72,0,.46-.09.84-.26,1.14-.15.31-.4.58-.76.8-.29.18-.63.3-1,.37-.37.07-.89.11-1.57.11h-1.71v2.93h-1.85v-7.63h0ZM127.15,63.68v2.29h1.74c.57,0,.99-.1,1.26-.3.27-.2.4-.51.4-.93,0-.37-.11-.64-.34-.81-.24-.16-.61-.24-1.12-.24h-1.94ZM125.49,62.37h3.45c1.08,0,1.88.19,2.4.56.52.37.78.95.78,1.74,0,.59-.17,1.08-.52,1.46-.35.38-.83.6-1.44.68.31.09.59.24.85.46.23.2.43.45.59.75l.16.33c.24.47.44.83.6,1.1.16.27.28.46.36.56h-2.09c-.1-.24-.22-.51-.37-.8-.15-.29-.26-.5-.34-.66-.22-.39-.43-.7-.63-.93-.15-.17-.31-.29-.47-.37-.17-.06-.41-.09-.73-.09h-.95v2.85h-1.66v-7.63h0ZM119.19,63.57c-.7,0-1.26.24-1.69.71-.42.48-.64,1.12-.64,1.91s.21,1.43.64,1.9c.42.48.98.71,1.69.71s1.27-.24,1.69-.72c.41-.47.62-1.1.62-1.89s-.21-1.43-.62-1.91c-.42-.47-.99-.71-1.69-.71h0ZM119.19,62.14c1.17,0,2.11.37,2.83,1.12.72.74,1.07,1.72,1.07,2.92s-.36,2.18-1.07,2.92c-.72.74-1.67,1.11-2.83,1.11s-2.1-.37-2.82-1.12c-.72-.74-1.08-1.71-1.08-2.91s.36-2.17,1.08-2.92c.71-.75,1.65-1.12,2.83-1.12h0ZM113,62.54v.18s-.02.32-.02.32v.24c0,.07,0,.16.02.26.02.1.02.19.03.25,0,.06.02.16.05.29-.39-.22-.79-.38-1.2-.5-.41-.12-.8-.18-1.17-.18-.76,0-1.37.24-1.83.71-.47.48-.7,1.12-.7,1.93,0,.88.25,1.59.74,2.11.5.52,1.16.78,2,.78.4,0,.79-.06,1.18-.19.39-.12.81-.31,1.25-.57l-.15.98-.05.66c-.3.13-.66.23-1.07.3-.42.07-.86.11-1.3.11-.7,0-1.3-.1-1.8-.29-.51-.19-.94-.49-1.31-.9-.29-.34-.53-.76-.71-1.26-.18-.5-.27-1.04-.27-1.63,0-1.23.35-2.21,1.05-2.92.69-.71,1.65-1.06,2.87-1.06.42,0,.82.03,1.21.1.39.06.79.16,1.19.3h0ZM97.34,62.37h1.37l4.09,5.42v-5.42h1.34v7.63h-1.34l-4.11-5.44v5.44h-1.34v-7.63h0ZM92.13,62.37h1.62v7.63h-1.62v-7.63h0ZM83.39,62.37h5.38v1.31h-3.7v1.84h3.16v1.26h-3.16v3.21h-1.68v-7.63h0Z"/>
</svg>