<?xml version="1.0" encoding="UTF-8"?>
<svg id="Layer_1" data-name="Layer 1" xmlns="http://www.w3.org/2000/svg" width="210" height="84" viewBox="0 0 210 84">
  <defs>
    <style>
      .cls-1 {
        fill: #010202;
        stroke-width: 0px;
      }
    </style>
  </defs>
  <path class="cls-1" d="M53.52,49.97c.45,1.2,1.08,2.23,1.88,3.08.8.85,1.75,1.51,2.85,1.96,1.1.45,2.29.68,3.58.68s2.43-.24,3.53-.71,2.05-1.13,2.87-1.98c.82-.85,1.45-1.87,1.91-3.06s.68-2.51.68-3.97v-22.57h5.48v36.56h-5.43v-3.4c-1.22,1.29-2.66,2.28-4.31,2.98-1.65.7-3.44,1.04-5.35,1.04s-3.77-.34-5.46-1.02c-1.69-.68-3.15-1.65-4.39-2.9s-2.21-2.76-2.93-4.52c-.71-1.76-1.07-3.72-1.07-5.88v-22.88h5.48v22.57c0,1.46.23,2.79.68,4Z"/>
  <path class="cls-1" d="M85.75,23.4v13.32c1.22-1.22,2.63-2.19,4.23-2.9s3.34-1.07,5.22-1.07,3.78.37,5.48,1.1c1.71.73,3.19,1.72,4.44,2.98s2.25,2.73,2.98,4.44c.73,1.71,1.1,3.52,1.1,5.43s-.37,3.72-1.1,5.41c-.73,1.69-1.72,3.16-2.98,4.41-1.25,1.25-2.73,2.25-4.44,2.98-1.71.73-3.53,1.1-5.48,1.1s-3.63-.36-5.25-1.07c-1.62-.71-3.04-1.68-4.26-2.9v3.34h-5.22V23.4h5.28ZM86.35,50.31c.47,1.11,1.12,2.09,1.96,2.93s1.81,1.5,2.93,1.98c1.11.49,2.32.73,3.6.73s2.44-.24,3.55-.73,2.08-1.15,2.9-1.98c.82-.84,1.47-1.81,1.96-2.93.49-1.11.73-2.32.73-3.6s-.24-2.5-.73-3.63-1.14-2.12-1.96-2.95c-.82-.84-1.78-1.49-2.9-1.96s-2.3-.71-3.55-.71-2.44.24-3.55.71-2.09,1.12-2.93,1.96c-.84.84-1.5,1.82-1.98,2.95-.49,1.13-.73,2.34-.73,3.63,0,1.29.23,2.49.71,3.6Z"/>
  <path class="cls-1" d="M112.18,41.32c.7-1.67,1.65-3.14,2.87-4.41s2.66-2.27,4.34-3,3.48-1.1,5.43-1.1,3.69.35,5.33,1.04c1.64.7,3.05,1.66,4.23,2.9,1.18,1.24,2.11,2.7,2.77,4.39.66,1.69.99,3.53.99,5.51v1.72h-21.68c.17,1.08.52,2.08,1.04,3,.52.92,1.18,1.72,1.96,2.4.78.68,1.67,1.21,2.66,1.59.99.38,2.05.57,3.16.57,3.17,0,5.73-1.31,7.68-3.92l3.81,2.82c-1.32,1.78-2.96,3.17-4.91,4.18-1.95,1.01-4.14,1.51-6.58,1.51-1.98,0-3.84-.35-5.56-1.04s-3.22-1.67-4.49-2.93-2.27-2.72-3-4.41-1.1-3.53-1.1-5.51c0-1.88.35-3.66,1.04-5.33ZM119.52,39.26c-1.48,1.24-2.46,2.88-2.95,4.94h16.25c-.45-2.05-1.42-3.7-2.9-4.94-1.48-1.24-3.21-1.85-5.2-1.85-1.98,0-3.72.62-5.2,1.85Z"/>
  <path class="cls-1" d="M148.01,39.86c-1.11,1.22-1.67,2.87-1.67,4.96v15.15h-5.28v-26.64h5.22v3.29c.66-1.08,1.52-1.93,2.59-2.56,1.06-.63,2.32-.94,3.79-.94h1.83v4.91h-2.19c-1.74,0-3.17.61-4.28,1.83Z"/>
</svg>