<?xml version="1.0" encoding="UTF-8"?>
<svg id="Layer_1" data-name="Layer 1" xmlns="http://www.w3.org/2000/svg" width="210" height="84" viewBox="0 0 210 84">
  <defs>
    <style>
      .cls-1, .cls-2, .cls-3 {
        fill-rule: evenodd;
      }

      .cls-1, .cls-2, .cls-3, .cls-4, .cls-5 {
        stroke-width: 0px;
      }

      .cls-1, .cls-5 {
        fill: #fff;
      }

      .cls-2 {
        fill: #e1262a;
      }

      .cls-3, .cls-4 {
        fill: #1b4584;
      }
    </style>
  </defs>
  <path class="cls-5" d="M59.62,27.3h-28.46v29.41h28.46v-29.41Z"/>
  <path class="cls-4" d="M178.86,27.3H59.62v29.41h119.24v-29.41Z"/>
  <path class="cls-1" d="M63.13,50.49v-16.73l5.48-.02v5.64h5.19v-5.64l5.49-.02v16.77s-5.49,0-5.49,0v-6.5h-5.18v6.5s-5.49,0-5.49,0Z"/>
  <path class="cls-3" d="M49.81,46.5l-8.9.03-.02-9.01h8.93s0,8.98,0,8.98Z"/>
  <path class="cls-2" d="M46.86,56.69h12.76v-13.51h-4.99v8.15s-7.77.02-7.77.02v5.34Z"/>
  <path class="cls-2" d="M46.86,27.3h12.76v13.51h-4.99v-8.16s-7.77-.01-7.77-.01v-5.34Z"/>
  <path class="cls-2" d="M43.91,56.69h-12.76v-5.37s0-8.14,0-8.14h4.99l-.02,8.15,7.79.02v5.34Z"/>
  <path class="cls-2" d="M43.91,27.3h-12.76v5.37s0,8.14,0,8.14h4.99l-.02-8.16h7.79v-5.35Z"/>
  <path class="cls-1" d="M87.92,37.63h1.04c2.93-.01,4.08.91,4.09,4.4,0,3.15-1.39,4.52-3.96,4.52h-1.16v-8.93h0ZM89.65,50.46c5.37,0,8.87-2.43,8.87-8.73-.01-5.51-3.35-8.03-8.75-8.03h-7.36s.02,16.77.02,16.77h7.22Z"/>
  <path class="cls-1" d="M107.43,43.4c1.74,0,3.02.09,3.02,1.58,0,1.23-1.03,1.53-2.39,1.53h-2.39v-3.11h1.76ZM107.6,37.54c1.16,0,2.23.03,2.23,1.33,0,.99-.77,1.46-1.85,1.46h-2.31s0-2.8,0-2.8h1.93ZM108.36,50.4c4.35,0,7.22-1.31,7.21-5.06,0-1.82-.99-3.37-2.79-3.84,1.06-.67,2.18-1.92,2.18-3.65,0-3.33-3.02-4.22-6.78-4.21h-8v16.76h8.18Z"/>
  <path class="cls-1" d="M120.47,41.06v-6.19h3.93v.9h-2.54v1.58h2.38v.9h-2.38v2.81h-1.39Z"/>
  <path class="cls-5" d="M128.26,34.87h-1.39v6.19h1.39v-6.19Z"/>
  <path class="cls-1" d="M134.42,34.87h1.38v6.19h-1.44l-1.09-2.21c-.37-.73-.67-1.48-.99-2.46h-.02c.05.51.11,1.14.15,1.77.04.62.07,1.24.07,1.74v1.17h-1.39v-6.2h1.44l1.08,2.26c.36.72.66,1.45,1,2.46h.02c-.05-.56-.1-1.16-.13-1.76-.04-.6-.07-1.19-.07-1.74v-1.22h-.01Z"/>
  <path class="cls-1" d="M138.05,41.06l1.78-6.19h1.87l1.69,6.19h-1.48l-.37-1.58h-1.63l-.36,1.58h-1.5ZM140.13,38.58h1.19l-.38-1.76c-.07-.28-.1-.57-.14-.85-.01-.14-.03-.28-.05-.41h-.02c-.02.13-.04.26-.05.41-.04.28-.07.57-.14.85l-.41,1.76Z"/>
  <path class="cls-1" d="M148.96,34.87h1.39v6.19h-1.44l-1.08-2.21c-.37-.73-.67-1.48-1-2.46h-.02c.05.51.11,1.14.15,1.77.04.62.07,1.24.07,1.74v1.17h-1.39v-6.2h1.44l1.08,2.26c.36.72.65,1.45,1,2.46h.02c-.05-.56-.1-1.16-.14-1.76s-.07-1.19-.07-1.74v-1.22h-.01Z"/>
  <path class="cls-1" d="M157.58,38.85c-.01.11-.02.24-.03.36-.07,1.13-.53,2-2.07,2-2.28,0-2.43-1.21-2.43-2.86v-.88c.06-1.58.21-2.75,2.43-2.75,1.24.02,1.93.55,2.03,1.61.02.15.04.32.03.47h-1.36c-.06-.4-.01-1.14-.69-1.14-1.09,0-1,1.08-1,1.56v1.72c0,.52.05,1.35,1,1.35.76,0,.68-1.03.7-1.42h1.39Z"/>
  <path class="cls-5" d="M161.56,34.87h-1.38v6.19h1.38v-6.19Z"/>
  <path class="cls-1" d="M163.83,41.06l1.77-6.19h1.87l1.69,6.19h-1.48l-.37-1.58h-1.63l-.37,1.58h-1.48ZM165.89,38.58h1.19l-.38-1.76c-.06-.28-.09-.57-.13-.85-.01-.14-.03-.28-.05-.41h-.02c-.02.13-.04.26-.05.41-.04.28-.07.57-.14.85l-.42,1.76Z"/>
  <path class="cls-1" d="M171.4,41.06v-6.19h1.39v5.29h2.57v.9h-3.96Z"/>
  <path class="cls-1" d="M123.25,44.86c.01-.56-.05-1.1-.81-1.1-.47,0-.77.15-.77.58,0,.47.37.65.79.88.46.24,1.3.7,1.69,1.02.48.39.62.76.62,1.29,0,1.18-.94,1.79-2.29,1.79-1.67,0-2.26-.78-2.26-1.88v-.46h1.38v.37c-.03.6.19,1.04.87,1.04.59,0,.86-.25.86-.73,0-.37-.2-.61-.56-.81-.72-.47-1.63-.81-2.19-1.42-.23-.28-.36-.62-.36-.96,0-1.06.71-1.63,2.19-1.63,2.21,0,2.14,1.42,2.16,2.03h-1.33Z"/>
  <path class="cls-1" d="M127.87,49.17v-6.2h3.9v.91h-2.51v1.56h2.32v.91h-2.32v1.9h2.51v.91h-3.9Z"/>
  <path class="cls-1" d="M136.21,46.5v2.67h-1.38v-6.19h2.62c1.2,0,2.11.35,2.11,1.48,0,.68-.21,1.39-1.14,1.49v.02c.82.09,1.07.53,1.07,1.13,0,.25-.04,1.77.29,1.96v.12h-1.52c-.16-.4-.13-1.16-.14-1.58-.01-.38,0-.9-.48-1.02-.38-.09-.78-.08-1.18-.08h-.25v-.02ZM136.21,45.59h1.1c.46-.02.81-.27.81-.89,0-.69-.36-.8-.88-.81h-1.03v1.71Z"/>
  <path class="cls-1" d="M146.03,42.97h1.48l-1.61,6.19h-1.85l-1.65-6.19h1.48l.87,3.97c.07.35.12.7.16,1.06.02.16.06.35.06.51h.02c0-.17.04-.35.06-.51.04-.36.09-.71.17-1.06l.78-3.97Z"/>
  <path class="cls-5" d="M151.77,42.97h-1.38v6.19h1.38v-6.19Z"/>
  <path class="cls-1" d="M159.5,46.97c-.01.12-.02.24-.02.36-.07,1.13-.53,2-2.07,2-2.28,0-2.43-1.21-2.43-2.86v-.88c.06-1.58.21-2.74,2.43-2.74,1.24.01,1.93.54,2.03,1.6.02.15.04.32.03.47h-1.36c-.06-.4-.01-1.14-.7-1.14-1.09,0-1,1.08-1,1.57v1.72c0,.51.05,1.34,1,1.34.76,0,.68-1.03.71-1.42h1.38Z"/>
  <path class="cls-1" d="M162.56,49.17v-6.2h3.9v.91h-2.52v1.56h2.33v.91h-2.33v1.9h2.52v.91h-3.9Z"/>
  <path class="cls-1" d="M172.37,44.86c.01-.56-.05-1.1-.81-1.1-.47,0-.76.15-.76.58,0,.47.36.65.79.88.45.24,1.3.7,1.69,1.02.48.39.63.76.63,1.29,0,1.18-.94,1.79-2.3,1.79-1.67,0-2.26-.78-2.26-1.88v-.46h1.38v.37c-.03.6.18,1.04.87,1.04.59,0,.86-.25.86-.73,0-.37-.2-.61-.56-.81-.72-.47-1.62-.81-2.2-1.42-.22-.28-.36-.62-.36-.96,0-1.06.72-1.63,2.19-1.63,2.21,0,2.14,1.42,2.16,2.03h-1.33Z"/>
</svg>