<?xml version="1.0" encoding="UTF-8"?>
<svg id="Layer_1" data-name="Layer 1" xmlns="http://www.w3.org/2000/svg" width="210" height="84" viewBox="0 0 210 84">
  <defs>
    <style>
      .cls-1 {
        fill: #12abdb;
      }

      .cls-1, .cls-2 {
        fill-rule: evenodd;
        stroke-width: 0px;
      }

      .cls-2 {
        fill: #0070ad;
      }
    </style>
  </defs>
  <path id="path3676" class="cls-1" d="M177.87,45.47c3.47,0,6.14-2.82,6.18-6.17-.24-1.46-.76-4.17-4.55-4.17-4.15,0-5.53,5.8-8.91,9.54-.27,2.13-2.29,4.03-4.8,4.35.61.64,1.99.99,3.62.99,2.99,0,6.61-.9,8.51-2.77-2.53.03-4.16-1.59-4.32-3.84,1.23,1.5,2.63,2.08,4.26,2.08"/>
  <path id="path3678" class="cls-2" d="M151.25,36.24c0-1.84-.11-3.07-1.32-3.07-.55,0-.82.11-1.3.27.43,6.23-.98,11.71-2.7,11.71-2.25,0-1.13-13.35-5.9-13.35-4.4,0-5.04,10.66-5.53,10.66-.34,0-.39-2.8-.37-4.93.18-1.02.29-1.94.29-2.64,0-.99-.41-2.71-2.66-1.85.08,7.62-1.45,12.22-3.17,12.22-2.52,0-2.55-6.91-2.55-8.81s.14-4.34-2.63-3.46c-.41,6.65-2.16,11.66-3.25,11.66-1.64,0-1.31-11.48-4.85-11.48-3.19,0-4.17,10.88-4.83,10.88-1.19,0,.37-12.24-4.23-12.24-2.41,0-3.37,4.09-4.31,8.66-.18.89-.37.92-.41-.09-.02-.85-.03-1.71-.02-2.56,1.16-4.6-.26-6.3-2.39-5.07.69,8.49-3.21,12.63-6.2,12.63-1.08,0-1.93-.46-2.57-1.19,3.58-2.2,5.17-4.72,5.17-7.18,0-2.67-1.53-4.21-4.08-4.21-3.55,0-5.54,3.66-5.54,6.77,0,1.67.31,3.1.83,4.27-1.22.58-2.37,1.08-3.44,1.57-.1-3.2-.45-6.56-.73-9.66-1.89-.52-2.45.39-2.59,2.07-.34,3.84-1.76,6.23-3.02,6.23-.94,0-1.52-1.15-1.59-2.38-.35-6.16,4.65-7.88,7.27-6.98.54-1.36-.05-2.34-2.42-2.34-2.86,0-5,1.74-6.57,3.97-1.04,1.49-2.26,2.54-3.86,3.82.04-.36.06-.73.06-1.09,0-4.34-2.35-6.25-4.6-6.25-1.86,0-3.03,1.11-3.71,2.83-.16-1.72-.51-2.46-1.51-2.46-.43,0-1.02.12-1.66.43.29.96.4,3.08.4,4.48,0,5.22-1.5,7.57-2.93,7.57-1.65,0-1.91-6.2-2.05-8.61-.26-.1-.53-.15-.8-.15-1.49,0-1.68,2-2.05,3.84-.41,2.04-1.58,4.6-3.32,4.6-1.05,0-1.71-1.01-1.79-2.83-.17-3.69,2.9-8.07,7.71-6.71.63-1.47-.36-2.59-2.35-2.59-3.51,0-6.42,2.63-7.69,5.74-1.29,2.86-3.54,7.05-8.12,7.05-3.23,0-5.71-2.82-5.71-8.74,0-5.1,3.22-9.95,6.65-9.95,2.4,0,2.96,2.36,2.75,4.58,1.24,1,3.28.07,3.28-2.43,0-1.72-1.39-4.63-5.9-4.63-5.58,0-10.51,5.56-10.51,12.87s3.59,11.26,8.68,11.26c3.21,0,6.24-1.83,8.32-5.21.53,2.96,2.54,4.2,4.05,4.2,2.45,0,4.04-1.58,4.91-3.72.54,2.14,1.69,3.73,3.6,3.73,1.34,0,2.39-.68,3.18-1.77-.31,7.45-.71,12.21,3.7,11.28-.68-2.12-.9-5.98-.9-9.45,0-9.48,1.56-12.61,3.52-12.61,1.42,0,1.88,1.81,1.88,3.74,0,1.04-.1,2.23-.36,3.3-2.41,1.52-4.33,2.72-4.33,4.25,0,1.21.9,1.32,1.67,1.32,1.85,0,4.08-1.81,5.31-5.24,1.07-.65,2.15-1.4,3.19-2.42-.03.35-.05.7-.05,1.05,0,3.4,1.49,5.46,3.86,5.46,1.86,0,3.26-1.32,4.25-3.3.06,1.14.1,2.19.12,3.16-3.78,1.75-7.95,3.52-7.95,8.45,0,2.55,1.84,4.47,4.24,4.47,5.26,0,6.46-5.55,6.51-12.01,1.71-.74,2.99-1.31,4.46-2.04,1.26,1.58,2.97,2.37,4.54,2.37,2.97,0,5.2-1.57,6.99-4.76.31,2.43.94,4.76,2.24,4.76,2.35,0,2.83-12.31,4.58-12.31,1.34,0,.24,13.31,3.78,13.31,3.03,0,3.6-11.72,5.07-11.72,1.05,0,1.12,10.71,4.42,10.71,1.62,0,3.38-1.95,4.26-6.04.42,2.72,1.79,6.04,4.47,6.04,1.56,0,2.91-1.58,3.95-3.68.29,2.16.9,3.68,2.08,3.68,3.08,0,2.98-12.28,5.42-12.28,1.9,0,1.32,12.28,5.85,12.28,2.15,0,3.18-1.84,3.79-4.14.83,3.39,2.18,4.14,3.29,4.14.7,0,1.23-.25,1.93-1.08-3.51-1.52-3.21-7.05-3.21-10.63M77.04,57.33c-1.09,0-1.67-1.04-1.67-2.2,0-3.15,2.31-4.82,5.16-6.26-.13,6.88-1.73,8.46-3.49,8.46M91.2,35.01c1.06,0,1.66.97,1.56,2.37-.12,1.64-1.32,3.52-3.4,5-1.08-3.09-.28-7.37,1.84-7.37M124.78,30.36c1.01-.03,1.71-.9,1.72-1.93,0-1.03-.69-1.85-1.7-1.81-1.01.03-1.83.9-1.84,1.93,0,1.03.81,1.84,1.82,1.81M149.89,30.88c.92-.03,1.67-.86,1.67-1.84s-.74-1.75-1.66-1.72c-.92.03-1.67.86-1.68,1.84,0,.98.74,1.75,1.66,1.72M184.04,39.05c-.08-3.89-1.93-7.17-4.78-9.79-2.17-1.98-4.74-3.49-7.44-4.62-.21-.09-.44-.18-.65-.27-3.33,3.98-14.84,6.96-14.84,15.31,0,3.26,2.06,6.32,5.09,7.54,1.76.66,3.51.7,5.27.11,1.56-.51,2.85-1.48,3.92-2.66,3.38-3.74,4.75-9.54,8.9-9.54,3.79,0,4.31,2.7,4.55,4.16,0,0,0-.11,0-.25"/>
</svg>