<?xml version="1.0" encoding="UTF-8"?>
<svg id="Layer_1" data-name="Layer 1" xmlns="http://www.w3.org/2000/svg" width="210" height="84" viewBox="0 0 210 84">
  <defs>
    <style>
      .cls-1 {
        fill: #fff;
      }

      .cls-1, .cls-2, .cls-3 {
        stroke-width: 0px;
      }

      .cls-1, .cls-3 {
        fill-rule: evenodd;
      }

      .cls-2 {
        fill: #069;
      }

      .cls-3 {
        fill: #000;
      }
    </style>
  </defs>
  <g id="layer1">
    <g id="g3019">
      <path id="path14" class="cls-2" d="M137.83,25.81c0-1.45,1.21-2.63,2.7-2.63h31.1c1.49,0,2.7,1.18,2.7,2.63v31.47c0,1.45-1.21,2.63-2.7,2.63h-31.1c-1.49,0-2.7-1.18-2.7-2.63v-31.47Z"/>
      <path id="path16" class="cls-3" d="M35.67,53.94h15.23v-5h-9.72v-19.08h-5.51s0,24.08,0,24.08Z"/>
      <path id="path18" class="cls-3" d="M58.61,53.94v-16.58h-5.51v16.58h5.51ZM55.86,35.1c1.92,0,3.12-1.27,3.12-2.87-.04-1.63-1.2-2.86-3.08-2.86s-3.12,1.24-3.12,2.86,1.2,2.87,3.05,2.87h.04Z"/>
      <path id="path20" class="cls-3" d="M61.17,53.94h5.51v-9.26c0-.5.04-.99.18-1.35.4-.99,1.31-2.02,2.83-2.02,1.99,0,2.79,1.52,2.79,3.75v8.87h5.51v-9.51c0-5.09-2.72-7.46-6.35-7.46-2.97,0-4.28,1.66-5,2.79h.04v-2.4h-5.51c.07,1.56,0,16.58,0,16.58h0Z"/>
      <path id="path22" class="cls-3" d="M85.77,29.87h-5.51v24.08h5.51v-5.38l1.38-1.73,4.32,7.11h6.78l-7.25-10.29,6.35-7h-6.64s-4.53,6.27-4.93,7.01v-13.79h0Z"/>
      <path id="path24" class="cls-3" d="M112.99,47.03c.07-.43.18-1.24.18-2.17,0-4.29-2.18-8.64-7.91-8.64-6.13,0-8.96,4.85-8.96,9.24,0,5.44,3.45,8.83,9.46,8.83,2.39,0,4.61-.35,6.42-1.1l-.73-3.64c-1.49.49-3.01.74-4.9.74-2.57,0-4.82-1.06-5-3.31l11.42.03h0ZM101.53,43.3c.14-1.42,1.09-3.5,3.45-3.5,2.5,0,3.08,2.23,3.08,3.5h-6.53Z"/>
      <path id="path26" class="cls-3" d="M126.78,29.87v8.33h-.07c-.8-1.17-2.47-1.94-4.68-1.94-4.24,0-7.98,3.4-7.94,9.2,0,5.38,3.37,8.88,7.58,8.88,2.28,0,4.46-.99,5.55-2.9h.11l.22,2.51h4.9c-.07-1.17-.15-3.18-.15-5.16v-18.91h-5.51,0ZM126.78,46.27c0,.42-.04.85-.11,1.2-.33,1.52-1.63,2.58-3.23,2.58-2.28,0-3.77-1.84-3.77-4.74,0-2.72,1.27-4.92,3.81-4.92,1.7,0,2.9,1.17,3.23,2.62.07.32.07.67.07.99v2.26h0Z"/>
      <path id="path28" class="cls-1" d="M148.9,53.93v-16.58h-5.51v16.58h5.51ZM146.14,35.08c1.92,0,3.12-1.27,3.12-2.86-.04-1.63-1.2-2.87-3.08-2.87s-3.12,1.24-3.12,2.87,1.2,2.86,3.05,2.86h.04Z"/>
      <path id="path30" class="cls-1" d="M151.95,53.93h5.51v-9.26c0-.5.04-.99.18-1.35.4-.99,1.31-2.02,2.83-2.02,1.99,0,2.79,1.52,2.79,3.75v8.87h5.51v-9.51c0-5.09-2.72-7.46-6.35-7.46-2.97,0-4.28,1.66-5,2.79h.04v-2.41h-5.51c.07,1.56,0,16.58,0,16.58h0Z"/>
    </g>
  </g>
</svg>