<?xml version="1.0" encoding="UTF-8"?>
<svg id="Layer_1" data-name="Layer 1" xmlns="http://www.w3.org/2000/svg" width="210" height="84" viewBox="0 0 210 84">
  <defs>
    <style>
      .cls-1 {
        fill: #da2027;
        stroke-width: 0px;
      }
    </style>
  </defs>
  <path class="cls-1" d="M182.3,24.67v31.98c0,1.44-1.16,2.6-2.6,2.6h-6.06v-28.24c.03-1.75,1.08-3.25,2.6-3.92l6.06-2.42ZM165.01,35.75c-1.52.67-2.58,2.16-2.6,3.92v19.58h6.06c1.44,0,2.6-1.16,2.6-2.6v-23.32l-6.06,2.42ZM153.78,44.38c-1.52.67-2.58,2.16-2.6,3.92v10.95h6.06c1.44,0,2.6-1.16,2.6-2.6v-14.69l-6.06,2.42ZM27.7,59.04h3.97v-6.73c0-1.26.72-1.96,1.78-1.96.9,0,1.49.57,1.49,1.75v6.93h3.94v-6.73c0-1.26.72-1.96,1.78-1.96.9,0,1.49.57,1.49,1.75v6.93h3.97v-7.6c0-2.91-1.6-4.33-3.81-4.33-1.47,0-2.83.57-3.84,1.93-.57-1.26-1.62-1.93-3.17-1.93-1.8,0-3.01.98-3.66,2.09v-1.78h-3.94v11.62ZM47.49,53.38c0,3.76,2.78,5.93,6.36,5.93s6.36-2.27,6.36-6.06v-.18c0-3.68-2.76-5.98-6.34-5.98s-6.39,2.37-6.39,6.08v.21M56.17,53.3c0,1.93-.8,3.04-2.29,3.04s-2.32-1.08-2.32-3.09v-.18c0-1.96.82-3.01,2.32-3.01s2.29,1.08,2.29,3.04v.21M61.97,55.31c0,2.73,1.47,3.99,4.1,3.99.93,0,1.7-.21,2.19-.33v-3.01c-.36.13-.7.21-1.13.21-.75,0-1.19-.39-1.19-1.24v-4.79h2.29v-2.71h-2.29v-2.42l-3.99,1.6v.82h-1.39v2.71h1.39v5.18M69.88,59.04h3.97v-6.52c0-1.49.8-2.19,1.98-2.19s1.67.64,1.67,1.96v6.75h3.97v-7.55c0-2.99-1.55-4.38-3.81-4.38-1.93,0-3.2.98-3.84,2.19v-7.45l-3.97,1.62v15.56h.03ZM82.81,53.38c0,3.81,2.68,5.93,6.31,5.93s5.54-1.49,5.9-4.12h-3.74c-.15.77-.72,1.39-2.04,1.39-1.42,0-2.32-.9-2.42-2.42h8.19v-1.06c0-4.17-2.73-6-5.93-6-3.5,0-6.29,2.34-6.29,6.08v.21M86.89,51.91c.21-1.39,1.03-2.19,2.22-2.19,1.29,0,1.98.77,2.04,2.19h-4.25ZM96.55,59.04h3.99v-5.51c0-1.86,1.34-2.63,3.76-2.55v-3.71c-1.8-.03-3.01.72-3.76,2.47v-2.32h-3.99v11.62ZM104.92,55.36c.08,2.58,2.04,3.97,5.33,3.97s5.28-1.24,5.28-3.99c0-2.5-1.55-3.32-4.79-3.74-1.42-.18-1.96-.39-1.96-.95s.44-.9,1.31-.9,1.34.39,1.49,1.16h3.61c-.26-2.78-2.27-3.76-5.13-3.76-2.68,0-4.97,1.24-4.97,3.81,0,2.42,1.31,3.32,4.43,3.74,1.6.23,2.16.49,2.16,1.06s-.44.95-1.42.95c-1.13,0-1.52-.46-1.65-1.31h-3.71M116.23,53.38c0,3.76,2.78,5.93,6.36,5.93s6.36-2.27,6.36-6.06v-.18c0-3.68-2.76-5.98-6.34-5.98s-6.39,2.37-6.39,6.08v.21M124.92,53.3c0,1.93-.8,3.04-2.29,3.04s-2.32-1.08-2.32-3.09v-.18c0-1.96.82-3.01,2.32-3.01s2.29,1.08,2.29,3.04v.21M130.38,59.04h3.99v-6.52c0-1.49.8-2.19,1.98-2.19s1.67.64,1.67,1.96v6.75h3.97v-7.55c0-2.99-1.55-4.38-3.81-4.38-1.93,0-3.2.98-3.81,2.19v-1.86h-3.99v11.59h0Z"/>
</svg>