<?xml version="1.0" encoding="UTF-8"?>
<svg id="Layer_1" data-name="Layer 1" xmlns="http://www.w3.org/2000/svg" width="210" height="84" viewBox="0 0 210 84">
  <defs>
    <style>
      .cls-1 {
        fill: #ffb900;
      }

      .cls-1, .cls-2, .cls-3, .cls-4, .cls-5 {
        stroke-width: 0px;
      }

      .cls-2 {
        fill: #00a4ef;
      }

      .cls-3 {
        fill: #737373;
      }

      .cls-4 {
        fill: #f25022;
      }

      .cls-5 {
        fill: #7fba00;
      }
    </style>
  </defs>
  <path class="cls-3" d="M92.1,32.19v19.62h-3.41v-15.4h-.05l-6.09,15.4h-2.27l-6.22-15.4h-.05v15.4h-3.13v-19.62h4.9l5.63,14.53h.09l5.95-14.53s4.63,0,4.63,0ZM94.92,33.69c0-.54.18-1,.59-1.36.41-.36.86-.54,1.41-.54.59,0,1.09.18,1.45.54s.59.82.59,1.36-.18,1-.59,1.36c-.41.36-.86.54-1.45.54s-1.04-.18-1.41-.54c-.36-.41-.59-.86-.59-1.36ZM98.6,37.73v14.08h-3.32v-14.08s3.32,0,3.32,0ZM108.63,49.4c.5,0,1.04-.09,1.63-.36.59-.23,1.14-.54,1.63-.91v3.09c-.54.32-1.14.54-1.82.68s-1.41.23-2.23.23c-2.09,0-3.77-.64-5.04-1.95-1.32-1.32-1.95-3-1.95-5,0-2.27.68-4.13,2-5.59s3.18-2.18,5.63-2.18c.64,0,1.27.09,1.86.23.64.14,1.14.36,1.5.54v3.18c-.5-.36-1.04-.68-1.54-.86-.54-.18-1.09-.32-1.63-.32-1.32,0-2.36.41-3.18,1.27s-1.18,2-1.18,3.45.41,2.54,1.18,3.32c.77.77,1.82,1.18,3.13,1.18ZM121.3,37.5c.27,0,.5,0,.73.05s.41.09.54.14v3.36c-.18-.14-.41-.27-.77-.36s-.73-.18-1.23-.18c-.82,0-1.5.36-2.04,1.04s-.86,1.73-.86,3.18v7.08h-3.32v-14.08h3.32v2.23h.05c.32-.77.77-1.36,1.36-1.82.64-.41,1.36-.64,2.23-.64ZM122.76,45c0-2.32.68-4.18,1.95-5.54,1.32-1.36,3.13-2.04,5.45-2.04,2.18,0,3.91.64,5.13,1.95,1.23,1.32,1.86,3.09,1.86,5.31s-.68,4.09-1.95,5.45c-1.32,1.36-3.09,2.04-5.36,2.04s-3.91-.64-5.18-1.91c-1.27-1.32-1.91-3.09-1.91-5.27ZM126.21,44.86c0,1.45.32,2.59,1,3.36s1.63,1.18,2.86,1.18,2.13-.36,2.77-1.18c.64-.77.95-1.91.95-3.45s-.32-2.63-.95-3.45c-.64-.77-1.59-1.18-2.72-1.18-1.23,0-2.13.41-2.82,1.23-.77.86-1.09,2-1.09,3.5ZM142.1,41.46c0,.45.14.86.45,1.14s.95.59,2,1c1.32.54,2.27,1.14,2.77,1.77.54.68.82,1.45.82,2.41,0,1.32-.5,2.36-1.54,3.18-1,.82-2.41,1.18-4.13,1.18-.59,0-1.23-.09-1.95-.23s-1.32-.32-1.82-.54v-3.27c.59.41,1.27.77,1.95,1s1.32.36,1.91.36c.73,0,1.32-.09,1.63-.32.36-.23.54-.54.54-1.04,0-.45-.18-.82-.54-1.18-.36-.32-1.09-.68-2.09-1.09-1.23-.5-2.09-1.09-2.59-1.73s-.77-1.45-.77-2.45c0-1.27.5-2.32,1.5-3.13s2.32-1.23,3.91-1.23c.5,0,1.04.05,1.63.18s1.14.27,1.54.41v3.22c-.45-.27-.95-.54-1.54-.77s-1.18-.32-1.73-.32c-.64,0-1.14.14-1.45.36-.32.32-.5.64-.5,1.09ZM149.55,45c0-2.32.68-4.18,1.95-5.54,1.32-1.36,3.13-2.04,5.45-2.04,2.18,0,3.91.64,5.13,1.95,1.23,1.32,1.86,3.09,1.86,5.31s-.68,4.09-1.95,5.45c-1.32,1.36-3.09,2.04-5.36,2.04s-3.91-.64-5.18-1.91c-1.23-1.32-1.91-3.09-1.91-5.27ZM153,44.86c0,1.45.32,2.59,1,3.36s1.63,1.18,2.86,1.18,2.13-.36,2.77-1.18c.64-.77.95-1.91.95-3.45s-.32-2.63-.95-3.45c-.64-.77-1.59-1.18-2.72-1.18-1.23,0-2.13.41-2.82,1.23-.73.86-1.09,2-1.09,3.5ZM174.98,40.46h-4.95v11.35h-3.36v-11.35h-2.36v-2.72h2.36v-1.95c0-1.45.5-2.68,1.45-3.63s2.18-1.41,3.68-1.41c.41,0,.77.05,1.09.05s.59.09.82.18v2.86c-.09-.05-.32-.14-.59-.23-.27-.09-.59-.14-.95-.14-.68,0-1.23.23-1.59.64s-.54,1.09-.54,1.91v1.68h4.95v-3.18l3.32-1v4.18h3.36v2.72h-3.36v6.59c0,.86.18,1.45.45,1.82.32.36.82.54,1.5.54.18,0,.41-.05.68-.14s.5-.18.68-.32v2.72c-.23.14-.54.23-1.04.32-.5.09-.95.14-1.45.14-1.41,0-2.45-.36-3.13-1.09-.68-.73-1.04-1.86-1.04-3.36l.05-7.18h0Z"/>
  <rect class="cls-4" x="28.34" y="25.65" width="15.53" height="15.53"/>
  <rect class="cls-5" x="45.51" y="25.65" width="15.53" height="15.53"/>
  <rect class="cls-2" x="28.34" y="42.82" width="15.53" height="15.53"/>
  <rect class="cls-1" x="45.51" y="42.82" width="15.53" height="15.53"/>
</svg>