<?xml version="1.0" encoding="UTF-8"?>
<svg id="Layer_1" data-name="Layer 1" xmlns="http://www.w3.org/2000/svg" width="210" height="84" viewBox="0 0 210 84">
  <defs>
    <style>
      .cls-1 {
        fill-rule: evenodd;
      }

      .cls-1, .cls-2 {
        fill: #231f20;
        stroke-width: 0px;
      }
    </style>
  </defs>
  <g>
    <path class="cls-2" d="M66.15,41.81c-.29.53-.74.95-1.34,1.27-.6.32-1.35.48-2.25.48h-1.66v3.93h-2.67v-10.96h4.33c.87,0,1.61.15,2.22.45s1.06.72,1.36,1.25c.3.53.45,1.14.45,1.83,0,.63-.15,1.22-.44,1.74M63.49,41.09c.25-.24.38-.58.38-1.01s-.13-.78-.38-1.01c-.25-.24-.63-.36-1.14-.36h-1.45v2.75h1.45c.51,0,.89-.12,1.14-.36"/>
    <polygon class="cls-2" points="77.47 36.54 77.47 47.5 74.8 47.5 74.8 42.99 70.64 42.99 70.64 47.5 67.97 47.5 67.97 36.54 70.64 36.54 70.64 40.84 74.8 40.84 74.8 36.54 77.47 36.54"/>
    <polygon class="cls-2" points="88.79 36.54 84.99 43.88 84.99 47.5 82.32 47.5 82.32 43.88 78.53 36.54 81.56 36.54 83.68 41.13 85.79 36.54 88.79 36.54"/>
    <path class="cls-2" d="M91.68,47.22c-.63-.26-1.14-.65-1.52-1.16-.38-.51-.58-1.12-.6-1.84h2.84c.04.41.18.72.42.93.24.21.55.32.94.32s.71-.09.94-.27c.23-.18.34-.43.34-.76,0-.27-.09-.49-.27-.67-.18-.18-.41-.32-.67-.44-.26-.11-.64-.24-1.13-.39-.71-.22-1.29-.44-1.73-.66-.45-.22-.83-.54-1.16-.97-.32-.43-.48-.98-.48-1.67,0-1.02.37-1.82,1.11-2.4.74-.58,1.7-.87,2.89-.87s2.18.29,2.92.87c.74.58,1.13,1.38,1.19,2.41h-2.89c-.02-.35-.15-.63-.39-.84-.24-.2-.55-.3-.92-.3-.32,0-.58.09-.78.26-.2.17-.3.42-.3.74,0,.35.17.63.5.83.33.2.85.41,1.56.64.71.24,1.28.47,1.73.69.44.22.83.54,1.15.95.32.42.48.95.48,1.61s-.16,1.19-.48,1.7c-.32.51-.78.92-1.38,1.22-.6.3-1.32.45-2.14.45s-1.52-.13-2.16-.39"/>
    <rect class="cls-2" x="99.47" y="36.54" width="2.67" height="10.96"/>
    <path class="cls-2" d="M104.32,39.11c.47-.85,1.12-1.51,1.96-1.98.84-.47,1.79-.71,2.85-.71,1.3,0,2.41.34,3.34,1.03.93.69,1.55,1.62,1.86,2.81h-2.94c-.22-.46-.53-.81-.93-1.05-.4-.24-.86-.36-1.37-.36-.82,0-1.49.29-2,.86-.51.57-.76,1.34-.76,2.3s.25,1.72.76,2.3c.51.57,1.18.86,2,.86.51,0,.97-.12,1.37-.36.4-.24.71-.59.93-1.05h2.94c-.31,1.19-.93,2.12-1.86,2.8-.93.68-2.04,1.02-3.34,1.02-1.06,0-2.01-.24-2.85-.71-.84-.47-1.49-1.13-1.96-1.98-.47-.84-.7-1.81-.7-2.89s.23-2.05.7-2.9"/>
    <path class="cls-2" d="M117.78,47.22c-.63-.26-1.14-.65-1.52-1.16-.38-.51-.58-1.12-.6-1.84h2.84c.04.41.18.72.42.93.24.21.55.32.94.32s.71-.09.94-.27c.23-.18.34-.43.34-.76,0-.27-.09-.49-.27-.67-.18-.18-.41-.32-.67-.44-.26-.11-.64-.24-1.13-.39-.71-.22-1.29-.44-1.73-.66-.45-.22-.83-.54-1.16-.97-.32-.43-.48-.98-.48-1.67,0-1.02.37-1.82,1.11-2.4.74-.58,1.7-.87,2.89-.87s2.18.29,2.92.87c.74.58,1.13,1.38,1.19,2.41h-2.89c-.02-.35-.15-.63-.39-.84-.24-.2-.55-.3-.92-.3-.32,0-.58.09-.78.26-.2.17-.3.42-.3.74,0,.35.17.63.5.83.33.2.85.41,1.56.64.71.24,1.28.47,1.73.69.44.22.83.54,1.15.95.32.42.48.95.48,1.61s-.16,1.19-.48,1.7c-.32.51-.78.92-1.38,1.22-.6.3-1.32.45-2.14.45s-1.52-.13-2.16-.39"/>
    <polygon class="cls-2" points="140.66 36.54 137.8 47.5 134.57 47.5 132.82 40.29 131.01 47.5 127.78 47.5 125 36.54 127.86 36.54 129.43 44.52 131.39 36.54 134.32 36.54 136.19 44.52 137.79 36.54 140.66 36.54"/>
    <path class="cls-2" d="M146.99,45.57h-4.09l-.66,1.94h-2.8l3.97-10.96h3.09l3.97,10.96h-2.83l-.66-1.94ZM146.3,43.51l-1.36-4.01-1.34,4.01h2.7Z"/>
    <polygon class="cls-2" points="154.34 45.44 157.84 45.44 157.84 47.5 151.67 47.5 151.67 36.54 154.34 36.54 154.34 45.44"/>
    <polygon class="cls-2" points="161.79 45.44 165.29 45.44 165.29 47.5 159.12 47.5 159.12 36.54 161.79 36.54 161.79 45.44"/>
    <path class="cls-2" d="M173.39,45.57h-4.09l-.66,1.94h-2.8l3.97-10.96h3.09l3.97,10.96h-2.83l-.66-1.94ZM172.71,43.51l-1.36-4.01-1.34,4.01h2.7Z"/>
    <polygon class="cls-2" points="187.57 36.54 187.57 47.5 184.9 47.5 184.9 42.99 180.75 42.99 180.75 47.5 178.08 47.5 178.08 36.54 180.75 36.54 180.75 40.84 184.9 40.84 184.9 36.54 187.57 36.54"/>
  </g>
  <g>
    <path class="cls-1" d="M35.27,37c.48-.43.72-1.01.72-1.73s-.22-1.25-.66-1.64c-.44-.4-1.12-.59-2.04-.59-.4,0-.89.04-1.46.12-.04,1.52-.07,2.96-.07,4.31.57.12,1.06.18,1.47.18.88,0,1.56-.22,2.04-.65"/>
    <path class="cls-1" d="M37.06,29.09c-7.13,0-12.91,5.78-12.91,12.91s5.78,12.91,12.91,12.91,12.91-5.78,12.91-12.91-5.78-12.91-12.91-12.91M46.63,43.21c-.09.08-.18.21-.26.39-.13.29-.72,1.95-1.77,4.96-.03.08-.58,1.71-1.64,4.91l-.13.07h-.42l-1.86-5.29c-.17-.47-.39-1.07-.67-1.78-.67,1.76-1.51,4.12-2.53,7.07h-.55c-.83-2.45-1.73-5.02-2.69-7.73-.48-1.33-.79-2.12-.92-2.34-.07-.12-.16-.22-.27-.29-.11-.07-.31-.15-.6-.23-1.33,0-2.8,0-3.97,0v-.36c.21-.05.37-.08.47-.1.71-.13,1.1-.24,1.19-.3.13-.11.2-.41.2-.89l.03-3.66v-3.66s0-.17,0-.17c0-.85-1.06-1.27-1.75-1.42.9-.06,1.56,0,2.54-.02l3.19-.03c1.18,0,2.05.23,2.59.71.55.47.81,1.12.81,1.93,0,.94-.37,1.73-1.1,2.37-.73.64-1.74.96-3.02.96-.5,0-1.08-.06-1.76-.2,0,.79,0,1.35,0,1.69,0,1.28.02,2.02.08,2.23.02.09.07.15.15.2.15.08.46.18,1.52.19,0,0,.02,0,.03,0,.23,0,.41.01.53.01.43,0,1.12-.03,2.07-.08v.46c-.6.15-.95.27-1.06.36-.1.08-.15.18-.15.3,0,.11.11.48.32,1.13.94,2.91,1.67,5.04,2.2,6.41l2.07-5.69c-.34-.94-.57-1.52-.68-1.73-.12-.21-.24-.36-.37-.43-.13-.08-.48-.19-1.07-.35v-.46c.94.06,1.67.08,2.18.08.54,0,1.24-.03,2.11-.08v.46l-.27.07c-.42.08-.69.17-.81.27-.07.07-.11.17-.11.3,0,.06,0,.11.02.16.03.13.31.98.84,2.54l1.62,4.71c.35-.98.77-2.23,1.26-3.75l1.13-3.52c.02-.07.02-.14.02-.2,0-.09-.03-.16-.08-.2-.06-.04-.43-.18-1.13-.4v-.46c.94.06,1.55.08,1.84.08.34,0,.92-.03,1.73-.08v.46c-.58.15-.93.29-1.07.4"/>
    <path class="cls-1" d="M37.06,26.77c6.94,0,12.8,4.65,14.63,11h-1.27c-1.79-5.67-7.1-9.78-13.36-9.78s-11.57,4.11-13.36,9.78h-1.27c1.83-6.35,7.69-11,14.63-11M51.69,46.23c-1.83,6.35-7.69,11-14.63,11s-12.8-4.65-14.63-11h1.27c1.79,5.67,7.1,9.78,13.36,9.78s11.57-4.11,13.36-9.78h1.27Z"/>
  </g>
</svg>