<?xml version="1.0" encoding="UTF-8"?>
<svg id="Layer_1" data-name="Layer 1" xmlns="http://www.w3.org/2000/svg" width="210" height="84" viewBox="0 0 210 84">
  <defs>
    <style>
      .cls-1 {
        fill: #099;
        fill-rule: evenodd;
        stroke-width: 0px;
      }
    </style>
  </defs>
  <g id="Ebene_1">
    <path class="cls-1" d="M178.76,30.83v4.5c-2.33-.88-4.41-1.32-6.22-1.32-1.08,0-1.93.2-2.58.58-.64.39-.97.87-.97,1.43,0,.75.73,1.42,2.19,2.02l4.23,2.06c3.42,1.63,5.12,3.79,5.12,6.51,0,2.26-.9,4.06-2.72,5.4-1.8,1.35-4.23,2.02-7.25,2.02-1.39,0-2.65-.06-3.76-.19-1.11-.12-2.39-.37-3.81-.72v-4.71c2.6.88,4.97,1.32,7.1,1.32,2.54,0,3.81-.74,3.81-2.22,0-.74-.52-1.34-1.57-1.81l-4.7-2c-1.73-.78-3.02-1.73-3.86-2.86-.83-1.14-1.25-2.44-1.25-3.92,0-2.08.88-3.76,2.61-5.03,1.75-1.26,4.06-1.9,6.95-1.9.94,0,2.02.08,3.21.24,1.21.16,2.36.36,3.48.61h0Z"/>
    <path class="cls-1" d="M45.71,30.83v4.5c-2.33-.88-4.4-1.32-6.22-1.32-1.08,0-1.93.2-2.58.58-.64.39-.97.87-.97,1.43,0,.75.74,1.42,2.2,2.02l4.23,2.06c3.41,1.63,5.11,3.79,5.11,6.51,0,2.26-.9,4.06-2.71,5.4-1.82,1.35-4.23,2.02-7.26,2.02-1.39,0-2.65-.06-3.76-.19-1.11-.12-2.38-.37-3.8-.72v-4.71c2.61.88,4.98,1.32,7.09,1.32,2.54,0,3.81-.74,3.81-2.22,0-.74-.51-1.34-1.56-1.81l-4.7-2c-1.75-.78-3.03-1.73-3.86-2.86-.84-1.14-1.25-2.44-1.25-3.92,0-2.08.87-3.76,2.61-5.03,1.73-1.26,4.05-1.9,6.94-1.9.95,0,2.01.08,3.22.24,1.2.16,2.35.36,3.47.61Z"/>
    <polygon class="cls-1" points="50.55 30.4 57.44 30.4 57.44 53.6 50.55 53.6 50.55 30.4"/>
    <polygon class="cls-1" points="79.64 30.4 79.64 34.69 69.4 34.69 69.4 39.83 78.28 39.83 78.28 43.7 69.4 43.7 69.4 49.1 79.85 49.1 79.85 53.6 62.77 53.6 62.77 30.4 79.64 30.4"/>
    <polygon class="cls-1" points="111.8 30.4 111.8 53.6 105.37 53.6 105.37 38.3 98.7 53.81 94.72 53.81 88.31 38.3 88.31 53.6 83.66 53.6 83.66 30.4 92.07 30.4 97.81 44.6 103.81 30.4 111.8 30.4"/>
    <polygon class="cls-1" points="133.98 30.4 133.98 34.69 123.8 34.69 123.8 39.83 132.68 39.83 132.68 43.7 123.8 43.7 123.8 49.1 134.19 49.1 134.19 53.6 117.12 53.6 117.12 30.4 133.98 30.4"/>
    <polygon class="cls-1" points="158.16 30.4 158.16 53.6 150.85 53.6 142.65 38.72 142.65 53.6 138 53.6 138 30.4 145.52 30.4 153.51 45.02 153.51 30.4 158.16 30.4"/>
  </g>
</svg>