<?xml version="1.0" encoding="UTF-8"?>
<svg id="Layer_1" data-name="Layer 1" xmlns="http://www.w3.org/2000/svg" width="210" height="84" viewBox="0 0 210 84">
  <defs>
    <style>
      .cls-1 {
        fill: #351a55;
      }

      .cls-1, .cls-2, .cls-3, .cls-4, .cls-5, .cls-6, .cls-7, .cls-8, .cls-9, .cls-10, .cls-11, .cls-12, .cls-13, .cls-14, .cls-15, .cls-16, .cls-17, .cls-18, .cls-19, .cls-20, .cls-21, .cls-22, .cls-23, .cls-24 {
        stroke-width: 0px;
      }

      .cls-2 {
        fill: #7ec45f;
      }

      .cls-3 {
        fill: #194c88;
      }

      .cls-4 {
        fill: #be266a;
      }

      .cls-5 {
        fill: #99558e;
      }

      .cls-6 {
        fill: #00aa75;
      }

      .cls-7 {
        fill: #4fba6a;
      }

      .cls-8 {
        fill: #3498b3;
      }

      .cls-9 {
        fill: #af3379;
      }

      .cls-10 {
        fill: #4c8dcb;
      }

      .cls-11 {
        fill: #2e4e88;
      }

      .cls-12 {
        fill: #d4525c;
      }

      .cls-13 {
        fill: #54669f;
      }

      .cls-14 {
        fill: #1f3d70;
      }

      .cls-15 {
        fill: #f89828;
      }

      .cls-16 {
        fill: #e0654f;
      }

      .cls-17 {
        fill: #0aa496;
      }

      .cls-18 {
        fill: #fed627;
      }

      .cls-19 {
        fill: #2a4c87;
      }

      .cls-20 {
        fill: #f57f2a;
      }

      .cls-21 {
        fill: #746fa7;
      }

      .cls-22 {
        fill: #3468a3;
      }

      .cls-23 {
        fill: #4c609b;
      }

      .cls-24 {
        fill: #fec127;
      }
    </style>
  </defs>
  <path id="path999" class="cls-19" d="M134.78,35.79c.41,1.56,2.01,2.5,3.59,2.07,1.56-.41,2.5-2.01,2.07-3.59-.41-1.56-2.01-2.5-3.59-2.07-1.54.43-2.48,2.03-2.07,3.59Z"/>
  <path id="path1001" class="cls-19" d="M130.82,38.91c1.05-.29,1.7-1.38,1.4-2.44s-1.38-1.7-2.44-1.4-1.7,1.38-1.4,2.44c.27,1.05,1.37,1.68,2.44,1.4Z"/>
  <path id="path1003" class="cls-19" d="M124.97,39.92c.78-.21,1.25-1.01,1.03-1.79s-1.01-1.25-1.79-1.03-1.25,1.01-1.03,1.79,1.01,1.25,1.79,1.03Z"/>
  <path id="path1005" class="cls-11" d="M120.43,40.61c.49-.14.78-.64.66-1.13s-.64-.78-1.13-.66c-.49.14-.78.64-.66,1.13s.62.78,1.13.66Z"/>
  <path id="path1007" class="cls-14" d="M132.61,29.86c.74,1.27,2.36,1.72,3.63.98s1.72-2.36.98-3.63-2.36-1.72-3.63-.98c-1.27.74-1.72,2.36-.98,3.63Z"/>
  <path id="path1009" class="cls-14" d="M126.74,33.23c.51.9,1.64,1.19,2.54.68s1.19-1.64.68-2.54-1.64-1.19-2.54-.68c-.88.51-1.19,1.64-.68,2.54Z"/>
  <path id="path1011" class="cls-14" d="M122.57,34.11c-.64.37-.86,1.17-.49,1.81s1.17.86,1.81.49.86-1.17.49-1.81c-.35-.62-1.17-.84-1.81-.49Z"/>
  <path id="path1013" class="cls-14" d="M118.85,36.8c-.41.23-.57.76-.33,1.17s.76.57,1.17.33.57-.76.33-1.17-.76-.57-1.17-.33Z"/>
  <path id="path1015" class="cls-3" d="M132.32,24.65c.94-.94.94-2.44,0-3.37s-2.44-.94-3.37,0-.94,2.44,0,3.37c.92.94,2.44.94,3.37,0Z"/>
  <path id="path1017" class="cls-3" d="M126.49,27.09c-.68-.68-1.77-.68-2.44,0-.68.68-.68,1.77,0,2.44.68.68,1.77.68,2.44,0,.68-.68.68-1.77,0-2.44Z"/>
  <path id="path1019" class="cls-3" d="M120.25,31.63c-.47.47-.47,1.23,0,1.7s1.23.47,1.7,0,.47-1.23,0-1.68c-.47-.49-1.23-.49-1.7-.02Z"/>
  <path id="path1021" class="cls-3" d="M117.31,36.28c.31.31.82.31,1.13,0,.31-.31.31-.82,0-1.13s-.82-.31-1.13,0-.31.82,0,1.13h0Z"/>
  <path id="path1023" class="cls-22" d="M123.92,20.64c1.07.62,2.46.25,3.08-.82s.25-2.46-.82-3.08-2.46-.25-3.08.82c-.64,1.07-.27,2.46.82,3.08-.02,0,0,0,0,0Z"/>
  <path id="path1025" class="cls-22" d="M119.88,24.44c-.45.76-.18,1.74.59,2.18s1.74.18,2.18-.59.18-1.74-.59-2.18c-.78-.45-1.76-.18-2.18.59Z"/>
  <path id="path1027" class="cls-22" d="M118.83,29.43c-.51-.29-1.15-.12-1.44.39s-.12,1.15.39,1.44,1.15.12,1.44-.39.12-1.15-.39-1.44Z"/>
  <path id="path1029" class="cls-22" d="M116.37,33.68c-.35-.2-.8-.08-.99.27s-.08.8.27.99.8.08.99-.27.08-.8-.27-.99Z"/>
  <path id="path1031" class="cls-10" d="M117.99,18.04c1.13.31,2.3-.37,2.59-1.5.31-1.13-.37-2.3-1.5-2.59s-2.3.37-2.59,1.5c-.31,1.13.37,2.3,1.5,2.59h0Z"/>
  <path id="path1033" class="cls-10" d="M116.19,24.71c.78.21,1.58-.25,1.79-1.03.21-.78-.25-1.58-1.03-1.79s-1.58.25-1.79,1.03c-.2.78.25,1.58,1.03,1.79Z"/>
  <path id="path1035" class="cls-10" d="M114.79,29.98c.53.14,1.07-.18,1.21-.7s-.18-1.07-.7-1.21-1.07.18-1.21.7c-.14.51.18,1.05.7,1.21Z"/>
  <path id="path1037" class="cls-10" d="M113.23,33.25c-.1.35.12.72.47.82s.72-.12.82-.47-.12-.72-.47-.82c-.37-.1-.74.12-.82.47Z"/>
  <path id="path1039" class="cls-8" d="M111.55,17.07c1.09,0,1.99-.9,1.99-1.99s-.9-1.99-1.99-1.99-1.99.9-1.99,1.99.9,1.99,1.99,1.99Z"/>
  <path id="path1041" class="cls-8" d="M111.55,21.32c-.74,0-1.33.59-1.33,1.33s.59,1.33,1.33,1.33,1.33-.59,1.33-1.33-.59-1.33-1.33-1.33Z"/>
  <path id="path1043" class="cls-8" d="M112.49,28.55c0-.51-.41-.94-.94-.94s-.94.41-.94.94.41.94.94.94.94-.43.94-.94Z"/>
  <path id="path1045" class="cls-8" d="M111.55,32.53c-.33,0-.6.27-.6.6s.27.6.6.6.6-.27.6-.6-.27-.6-.6-.6Z"/>
  <path id="path1047" class="cls-17" d="M105.06,17.81c.99-.27,1.58-1.29,1.31-2.28s-1.29-1.58-2.28-1.31-1.58,1.29-1.31,2.28c.27.98,1.31,1.56,2.28,1.31Z"/>
  <path id="path1049" class="cls-17" d="M105.39,23.62c.18.64.82,1.01,1.46.84s1.01-.82.84-1.46-.82-1.01-1.46-.84c-.62.18-1.01.84-.84,1.46Z"/>
  <path id="path1051" class="cls-17" d="M107.24,29.26c.12.47.6.74,1.05.6.47-.12.74-.6.6-1.05-.12-.47-.6-.74-1.05-.6-.47.12-.72.59-.6,1.05h0Z"/>
  <path id="path1053" class="cls-17" d="M108.74,33.58c.08.29.37.45.64.37.29-.08.45-.37.37-.64-.08-.29-.37-.45-.64-.37s-.45.35-.37.64Z"/>
  <path id="path1055" class="cls-6" d="M98.95,20.21c.82-.47,1.11-1.54.64-2.36s-1.54-1.11-2.36-.64-1.11,1.54-.64,2.36c.49.84,1.54,1.11,2.36.64Z"/>
  <path id="path1057" class="cls-6" d="M102.41,26.17c.51-.29.68-.94.39-1.44s-.94-.68-1.44-.39-.68.94-.39,1.44c.27.51.94.68,1.44.39Z"/>
  <path id="path1059" class="cls-6" d="M105.21,31.07c.39-.21.51-.7.29-1.09s-.7-.51-1.09-.29-.51.7-.29,1.09c.23.37.72.51,1.09.29Z"/>
  <path id="path1061" class="cls-6" d="M107.52,34.11c-.14-.21-.41-.29-.64-.18-.21.14-.29.41-.18.64.14.21.41.29.62.18.25-.14.33-.43.2-.64Z"/>
  <path id="path1063" class="cls-7" d="M93.63,24.13c.62-.62.62-1.64,0-2.26s-1.64-.62-2.26,0-.62,1.64,0,2.26c.64.62,1.66.62,2.26,0Z"/>
  <path id="path1065" class="cls-7" d="M98.53,27.7c-.37-.37-.96-.37-1.31,0-.37.37-.37.96,0,1.31.37.37.96.37,1.31,0s.35-.96,0-1.31Z"/>
  <path id="path1067" class="cls-7" d="M102.56,32.01c-.29-.29-.74-.29-1.03,0s-.29.74,0,1.03.74.29,1.03,0c.27-.29.27-.74,0-1.03Z"/>
  <path id="path1069" class="cls-7" d="M105.57,35.48c-.16-.16-.41-.14-.55.02-.16.16-.14.41.02.55s.39.14.55,0c.14-.16.14-.41-.02-.57Z"/>
  <path id="path1071" class="cls-2" d="M87.47,29.8c.7.41,1.6.16,1.99-.53.41-.7.16-1.6-.53-1.99-.7-.41-1.6-.16-1.99.53-.41.68-.18,1.58.53,1.99Z"/>
  <path id="path1073" class="cls-2" d="M95.19,31.67c-.39-.21-.86-.08-1.09.29-.21.39-.08.86.29,1.09.39.21.86.1,1.09-.29.21-.39.08-.88-.29-1.09Z"/>
  <path id="path1075" class="cls-2" d="M100.24,34.74c-.31-.18-.72-.08-.9.25-.18.31-.08.72.25.9.31.18.72.08.9-.23s.06-.72-.25-.92Z"/>
  <path id="path1077" class="cls-23" d="M138.54,38.81c-1.76,0-3.2,1.42-3.2,3.2s1.42,3.2,3.2,3.2,3.18-1.42,3.2-3.18c-.02-1.77-1.44-3.22-3.2-3.22h0Z"/>
  <path id="path1079" class="cls-23" d="M133.26,42.01c0-1.27-1.01-2.28-2.28-2.28s-2.28,1.01-2.28,2.28,1.01,2.28,2.28,2.28,2.28-1.01,2.28-2.28Z"/>
  <path id="path1081" class="cls-23" d="M125.07,40.45c-.86,0-1.56.7-1.56,1.56s.7,1.56,1.56,1.56,1.56-.7,1.56-1.56-.7-1.56-1.56-1.56Z"/>
  <path id="path1083" class="cls-13" d="M121.5,42.01c0-.57-.45-1.01-1.01-1.01s-1.01.45-1.01,1.01.45,1.01,1.01,1.01,1.01-.45,1.01-1.01Z"/>
  <path id="path1085" class="cls-21" d="M138.37,46.14c-1.56-.43-3.16.51-3.59,2.07s.51,3.16,2.07,3.59,3.16-.51,3.59-2.07v-.02c.41-1.54-.53-3.14-2.07-3.57h0Z"/>
  <path id="path1087" class="cls-21" d="M129.79,48.93c1.05.29,2.15-.35,2.44-1.4s-.35-2.15-1.4-2.44-2.15.35-2.44,1.4.33,2.15,1.4,2.44Z"/>
  <path id="path1089" class="cls-21" d="M124.21,46.9c.78.21,1.58-.25,1.79-1.03s-.25-1.58-1.03-1.79-1.58.25-1.79,1.03c-.2.78.25,1.58,1.03,1.79Z"/>
  <path id="path1091" class="cls-21" d="M119.94,45.21c.49.14.99-.16,1.13-.66.14-.49-.16-.99-.66-1.13-.49-.14-.99.16-1.13.66-.14.47.16.99.66,1.13h0Z"/>
  <path id="path1093" class="cls-5" d="M136.24,53.16c-1.27-.74-2.89-.29-3.63.98s-.29,2.89.98,3.63,2.89.29,3.63-.98c.72-1.27.29-2.89-.98-3.63Z"/>
  <path id="path1095" class="cls-5" d="M129.98,52.62c.51-.9.21-2.03-.68-2.54s-2.03-.21-2.54.68-.21,2.03.68,2.54c.88.51,2.01.2,2.54-.68Z"/>
  <path id="path1097" class="cls-5" d="M124.39,49.4c.37-.64.16-1.44-.49-1.81s-1.44-.16-1.81.49-.16,1.44.49,1.81c.64.35,1.44.14,1.81-.49Z"/>
  <path id="path1099" class="cls-5" d="M120.04,46.87c.23-.41.1-.94-.31-1.19-.41-.23-.94-.1-1.19.31s-.1.94.31,1.19h.02c.41.23.94.1,1.17-.31Z"/>
  <path id="path1101" class="cls-9" d="M128.93,59.35c-.94.94-.94,2.44,0,3.37.94.94,2.44.94,3.37,0s.94-2.44,0-3.37c-.92-.92-2.44-.92-3.37,0Z"/>
  <path id="path1103" class="cls-9" d="M126.49,56.91c.68-.68.68-1.77,0-2.44-.68-.68-1.77-.68-2.44,0-.68.68-.68,1.77,0,2.44.66.68,1.76.68,2.44,0Z"/>
  <path id="path1105" class="cls-9" d="M121.95,52.37c.47-.47.47-1.23,0-1.7s-1.23-.47-1.7,0-.47,1.23,0,1.68c.47.49,1.23.49,1.7.02h0Z"/>
  <path id="path1107" class="cls-9" d="M117.31,48.84c.31.31.82.31,1.13,0,.31-.31.31-.82,0-1.13s-.82-.31-1.13,0-.31.82,0,1.13h0Z"/>
  <path id="path1109" class="cls-4" d="M123.92,63.36c-1.07.62-1.44,2.01-.82,3.08s2.01,1.44,3.08.82,1.44-2.01.82-3.08-2.01-1.44-3.08-.82Z"/>
  <path id="path1111" class="cls-4" d="M122.63,57.98c-.45-.76-1.4-1.03-2.18-.59-.76.45-1.03,1.4-.59,2.18.45.76,1.4,1.03,2.18.59.76-.45,1.03-1.42.59-2.18Z"/>
  <path id="path1113" class="cls-4" d="M118.83,54.57c.51-.29.68-.94.39-1.44s-.94-.68-1.44-.39-.68.94-.39,1.44.94.68,1.44.39Z"/>
  <path id="path1115" class="cls-4" d="M115.65,49.05c-.35.2-.47.64-.27.99s.64.47.99.27.47-.64.27-.99-.64-.47-.99-.27Z"/>
  <path id="path1117" class="cls-12" d="M117.99,65.96c-1.13.31-1.81,1.46-1.5,2.59s1.46,1.81,2.59,1.5c1.13-.31,1.81-1.46,1.5-2.59-.29-1.13-1.46-1.81-2.59-1.5h0Z"/>
  <path id="path1119" class="cls-12" d="M116.95,62.1c.78-.21,1.25-1.01,1.03-1.79s-1.01-1.25-1.79-1.03-1.23,1.01-1.03,1.79c.21.8,1.01,1.25,1.79,1.03h0Z"/>
  <path id="path1121" class="cls-12" d="M116,54.73c-.14-.53-.68-.84-1.21-.7s-.84.68-.7,1.21.68.84,1.21.7c.55-.12.86-.66.7-1.21h0Z"/>
  <path id="path1123" class="cls-12" d="M114.5,50.4c-.1-.35-.47-.57-.82-.47s-.57.47-.47.82.45.57.82.47c.35-.1.57-.47.47-.82Z"/>
  <path id="path1125" class="cls-16" d="M111.55,66.93c-1.09,0-1.99.9-1.99,1.99s.9,1.99,1.99,1.99,1.99-.88,1.99-1.99-.88-1.99-1.99-1.99Z"/>
  <path id="path1127" class="cls-16" d="M110.23,61.36c0,.74.59,1.33,1.33,1.33s1.33-.59,1.33-1.33-.59-1.33-1.33-1.33-1.33.59-1.33,1.33Z"/>
  <path id="path1129" class="cls-16" d="M111.55,56.36c.51,0,.94-.41.94-.94s-.41-.94-.94-.94-.94.41-.94.94c.02.53.43.94.94.94h0Z"/>
  <path id="path1131" class="cls-16" d="M111.55,50.26c-.33,0-.6.27-.6.6s.27.6.6.6.6-.27.6-.6-.27-.6-.6-.6Z"/>
  <path id="path1133" class="cls-20" d="M105.06,66.19c-.99-.27-2.01.33-2.28,1.31-.27.99.33,2.01,1.31,2.28.99.27,2.01-.33,2.28-1.31.27-.99-.31-2.01-1.31-2.28Z"/>
  <path id="path1135" class="cls-20" d="M106.85,59.52c-.64-.18-1.29.21-1.46.84-.18.64.21,1.29.84,1.46.64.18,1.29-.21,1.46-.84s-.2-1.29-.84-1.46Z"/>
  <path id="path1137" class="cls-20" d="M108.3,54.14c-.47-.12-.94.16-1.05.6-.12.47.16.94.6,1.05.47.12.94-.16,1.05-.6.14-.45-.14-.92-.6-1.05Z"/>
  <path id="path1139" class="cls-20" d="M109.78,50.69c.08-.29-.1-.59-.37-.64s-.59.1-.64.37.1.59.37.64c.27.08.57-.08.64-.37Z"/>
  <path id="path1141" class="cls-15" d="M98.95,63.79c-.82-.47-1.87-.2-2.36.62-.47.82-.2,1.87.62,2.36.82.47,1.87.2,2.36-.62s.2-1.87-.62-2.36Z"/>
  <path id="path1143" class="cls-15" d="M102.41,57.83c-.51-.29-1.15-.12-1.44.39s-.12,1.15.39,1.44,1.15.12,1.44-.39.12-1.15-.39-1.44Z"/>
  <path id="path1145" class="cls-15" d="M104.43,54.32c.39.21.88.1,1.09-.29s.1-.88-.29-1.09-.88-.1-1.09.29-.1.88.29,1.09Z"/>
  <path id="path1147" class="cls-15" d="M107.36,49.25c-.21-.14-.51-.06-.62.18-.14.21-.06.51.18.62.21.14.51.06.62-.18.12-.2.04-.49-.18-.62h0Z"/>
  <path id="path1149" class="cls-24" d="M91.39,59.87c-.62.62-.62,1.64,0,2.26s1.64.62,2.26,0,.62-1.64,0-2.26-1.64-.62-2.26,0Z"/>
  <path id="path1151" class="cls-24" d="M97.22,55c-.37.37-.37.96,0,1.31.37.37.96.37,1.31,0s.37-.96,0-1.31c-.35-.37-.96-.37-1.31,0Z"/>
  <path id="path1153" class="cls-24" d="M101.53,50.96c-.29.29-.29.74,0,1.03s.74.29,1.03,0,.29-.74,0-1.03-.76-.29-1.03,0Z"/>
  <path id="path1155" class="cls-24" d="M105.57,47.96c-.16-.16-.41-.14-.55.02-.16.16-.14.41.02.55s.39.14.55,0c.14-.16.14-.41-.02-.57h0Z"/>
  <path id="path1157" class="cls-18" d="M87.51,54.16c-.7.41-.94,1.29-.53,1.99s1.29.94,1.99.53.94-1.29.53-1.99c-.39-.7-1.29-.94-1.99-.53Z"/>
  <path id="path1159" class="cls-18" d="M94.39,50.94c-.37.21-.51.7-.29,1.09.21.37.7.51,1.09.29.37-.21.51-.7.29-1.09-.21-.37-.7-.51-1.09-.29Z"/>
  <path id="path1161" class="cls-18" d="M99.58,48.11c-.31.18-.43.59-.23.9.18.31.59.43.9.23.31-.18.43-.59.23-.9-.18-.31-.59-.43-.9-.23Z"/>
  <path id="path1163" class="cls-1" d="M84.54,37.37h2.34v9.01h-2.34v-9.01ZM85.97,33.35c-.72-.2-1.46.23-1.66.96s.23,1.46.96,1.66,1.46-.23,1.66-.96-.23-1.48-.96-1.66ZM94.12,46.57c-.57,0-1.13-.1-1.66-.33-.47-.21-.88-.55-1.19-.96v5.6h-2.28v-13.51h2.26v1.25c.29-.45.7-.8,1.19-1.05.51-.25,1.07-.39,1.66-.39s1.11.12,1.64.33.99.55,1.38.94c.41.43.74.94.96,1.48.25.62.37,1.27.35,1.93.02.66-.12,1.33-.37,1.95-.23.55-.57,1.05-.98,1.48-.76.82-1.85,1.29-2.96,1.29ZM93.65,44.39c.33,0,.66-.06.98-.2.29-.14.57-.31.8-.55s.41-.51.53-.8c.25-.64.25-1.35,0-1.99-.12-.29-.31-.57-.53-.8-.23-.23-.51-.41-.8-.55-.31-.14-.64-.2-.98-.2-.66,0-1.31.27-1.79.74-.23.23-.41.51-.53.8-.25.64-.25,1.35,0,1.97.12.29.29.57.53.8.49.51,1.13.78,1.79.76ZM100.1,37.37h2.26v1.38c.2-.49.53-.9.98-1.17.47-.25.98-.39,1.52-.37.29,0,.57.04.84.1.23.06.47.14.68.25l-.84,2.26c-.16-.1-.33-.18-.51-.23-.23-.06-.47-.1-.7-.1-.53-.02-1.03.16-1.42.49-.35.33-.53.88-.53,1.62v4.76h-2.28v-8.99ZM111.47,46.57c-.64,0-1.29-.12-1.89-.37-.57-.23-1.07-.59-1.52-1.01-.88-.88-1.37-2.07-1.37-3.32,0-.62.12-1.25.35-1.83.23-.57.57-1.07.99-1.5,1.89-1.83,4.9-1.83,6.79,0,.88.88,1.38,2.07,1.38,3.32,0,.62-.12,1.25-.37,1.81-.23.57-.59,1.07-.99,1.5-.43.43-.94.78-1.52,1.01-.57.25-1.21.39-1.85.39h0ZM111.49,44.39c.33,0,.66-.06.98-.2.29-.14.55-.31.78-.53.23-.23.41-.51.53-.8.25-.64.25-1.35,0-1.97-.12-.29-.29-.57-.53-.8s-.49-.41-.78-.53c-.62-.27-1.33-.27-1.93,0-.29.14-.55.31-.78.53-.23.23-.41.51-.53.8-.25.64-.25,1.35,0,1.97.12.29.29.57.53.8s.49.41.78.53.62.2.96.2ZM68.26,37.37h2.34l1.81,5.75,2.15-5.75h2.03l2.11,5.75,1.89-5.75h2.34l-3.06,9.01h-2.16l-2.15-5.87-2.16,5.87h-2.2l-2.93-9.01Z"/>
</svg>