<?xml version="1.0" encoding="UTF-8"?>
<svg id="Layer_1" data-name="Layer 1" xmlns="http://www.w3.org/2000/svg" width="210" height="84" viewBox="0 0 210 84">
  <defs>
    <style>
      .cls-1 {
        fill: #4173d2;
      }

      .cls-1, .cls-2 {
        stroke-width: 0px;
      }

      .cls-2 {
        fill: #2039a8;
      }
    </style>
  </defs>
  <g id="Layer_1-2" data-name="Layer 1-2">
    <g>
      <path class="cls-2" d="M55.82,59.68l.12-.14,4.62-5.69h-6.14c-7.7,0-13.97-6.26-13.97-13.97s6.26-13.97,13.97-13.97h7.17l4.77-5.82h-11.95c-10.91,0-19.79,8.88-19.79,19.79s8.88,19.79,19.79,19.79h1.41Z"/>
      <path class="cls-1" d="M34.62,39.89c0,5.03,1.89,9.63,5,13.13l3.74-4.6c-1.83-2.36-2.91-5.32-2.91-8.52,0-7.7,6.26-13.97,13.97-13.97h7.22l4.73-5.82h-11.95c-10.91,0-19.79,8.88-19.79,19.79Z"/>
      <polygon class="cls-2" points="60.55 53.86 66.38 46.67 66.38 36.76 54 36.76 49.29 42.58 60.55 42.58 60.55 53.86"/>
      <g>
        <path class="cls-2" d="M125.41,47.3c0,.87-.55,1.61-1.38,1.86-1.17.35-2.66,1.04-3.09,2.35-.29.75-.44,1.62-.44,2.62v3.98c0,1.02-.83,1.85-1.85,1.85s-1.85-.83-1.85-1.85v-10.96c0-1.02.83-1.85,1.85-1.85s1.85.83,1.85,1.85v.46c.55-.93,1.27-1.62,2.13-2.06.59-.3,1.27-.27,1.84.08.59.36.94.98.94,1.67ZM86.26,56.21h-7.22c-.4,0-.72-.32-.72-.72v-12.99c0-.95-.77-1.72-1.72-1.72h-.29c-.95,0-1.72.77-1.72,1.72v16.04c0,.61.5,1.11,1.11,1.11h10.55c.95,0,1.72-.77,1.72-1.72s-.77-1.72-1.72-1.72h0ZM101.56,52.71c0,.64-.52,1.14-1.16,1.14h-9.03c.4,1.87,1.78,3.02,3.69,3.02,1.09,0,1.96-.29,2.83-.93.58-.43,1.39-.39,1.93.09.34.3.53.74.52,1.19s-.22.88-.57,1.16c-1.31,1.06-2.91,1.59-4.75,1.59-4.26,0-7.36-3.13-7.36-7.44v-.3c0-1.93.78-3.83,2.16-5.19,1.33-1.32,3.07-2.05,4.91-2.04,4.73.03,6.84,3.89,6.84,7.71h0ZM91.34,51.25h6.53c-.24-1.57-1.2-3.14-3.23-3.14-1.67,0-2.95,1.22-3.3,3.14h0ZM113.7,46.73c1.04,1.01,1.56,2.51,1.56,4.45v6.66c0,.99-.81,1.8-1.8,1.8-.85,0-1.57-.6-1.75-1.39-1.12,1.1-2.6,1.68-4.31,1.68-2.5,0-5.19-1.42-5.19-4.53v-.05c0-2.95,2.24-4.71,6-4.71,1.51,0,2.61.24,3.47.49h0c0-2.29-1.73-2.77-3.19-2.77-.94,0-1.79.13-2.69.41-.81.26-1.67-.18-1.96-.99-.14-.4-.12-.83.07-1.22.19-.38.5-.66.9-.8,1.31-.45,2.57-.65,4.09-.65,2.09,0,3.74.56,4.77,1.62h.02ZM108.85,53.16c-1.91,0-3,.75-3,2.06v.05c0,1.13.96,1.85,2.45,1.85,2,0,3.45-1.14,3.45-2.72v-.77c-.64-.23-1.62-.47-2.9-.47h0ZM134.26,45.31c-1.65,0-2.99.64-4.09,1.94-.1-.93-.89-1.65-1.84-1.65-1.02,0-1.85.83-1.85,1.85v10.65c0,1.02.83,1.85,1.85,1.85s1.85-.83,1.85-1.85v-6.22c0-1.94,1.13-3.19,2.87-3.19s2.72,1.11,2.72,3.13v6.28c0,1.02.82,1.84,1.84,1.84s1.84-.82,1.84-1.84v-7.26c0-3.42-1.99-5.55-5.18-5.55h0ZM142.89,45.6c-1.02,0-1.85.83-1.85,1.85v10.65c0,1.02.83,1.85,1.85,1.85s1.85-.83,1.85-1.85v-10.65c0-1.02-.83-1.85-1.85-1.85ZM143.08,41.05h-.38c-.94,0-1.71.77-1.71,1.71s.77,1.71,1.71,1.71h.38c.94,0,1.71-.77,1.71-1.71s-.77-1.71-1.71-1.71ZM154.09,45.32c-1.65,0-2.99.64-4.09,1.94-.1-.93-.89-1.65-1.84-1.65-1.02,0-1.85.83-1.85,1.85v10.65c0,1.02.83,1.85,1.85,1.85s1.85-.83,1.85-1.85v-6.22c0-1.94,1.13-3.19,2.87-3.19s2.72,1.11,2.72,3.13v6.28c0,1.02.82,1.84,1.84,1.84s1.84-.82,1.84-1.84v-7.26c0-3.42-1.99-5.55-5.18-5.55h0ZM175.38,47.13v9.43c0,2.37-.61,4.18-1.83,5.4-1.28,1.28-3.26,1.94-5.87,1.94-1.81,0-3.52-.35-5.08-1.04-.39-.18-.69-.49-.83-.89-.15-.4-.12-.86.07-1.24.38-.77,1.3-1.09,2.07-.73,1.17.54,2.38.81,3.69.81,2.71,0,4.13-1.37,4.13-3.97v-.37c-1.3,1.42-2.78,2.09-4.63,2.09-4.25,0-6.55-3.47-6.55-6.73v-.05c0-4.39,3.38-6.76,6.55-6.76,2.28,0,3.7,1.02,4.61,1.96.08-.94.87-1.67,1.83-1.67,1.02,0,1.84.82,1.84,1.84ZM167.94,48.2c-2.17,0-3.69,1.45-3.69,3.53v.05c0,2.06,1.55,3.56,3.69,3.56s3.81-1.53,3.81-3.56v-.05c0-2.01-1.64-3.53-3.81-3.53Z"/>
        <path class="cls-1" d="M92.29,30.38v5.17c0,.69-.32,1.34-.87,1.74-1.45,1.05-3.84,2.31-7.04,2.31-5.76,0-9.77-3.99-9.77-9.7v-.05c0-5.47,4.26-9.75,9.71-9.75,2.37,0,4.17.47,5.83,1.52.43.27.72.71.8,1.21.08.49-.06.99-.38,1.38l-.14.16c-.56.67-1.55.81-2.3.32-1.17-.76-2.39-1.1-3.94-1.1-3.2,0-5.71,2.73-5.71,6.21v.05c0,3.72,2.46,6.31,5.99,6.31,1.13,0,2.23-.24,3.2-.7.6-.28.98-.92.98-1.61v-1.99h-3.03c-.92,0-1.67-.75-1.67-1.67h0c0-.92.75-1.67,1.67-1.67h4.79c1.03,0,1.86.83,1.86,1.86h.01ZM101.41,25.27c-.57-.35-1.26-.38-1.84-.08-.86.44-1.57,1.13-2.13,2.06v-.46c0-1.02-.83-1.85-1.85-1.85s-1.85.83-1.85,1.85v10.96c0,1.02.83,1.85,1.85,1.85s1.85-.83,1.85-1.85v-3.98c0-.99.15-1.87.44-2.62.43-1.31,1.92-2,3.09-2.35.83-.25,1.38-.99,1.38-1.86,0-.69-.35-1.31-.94-1.67ZM116.15,32.34c0,.63-.52,1.14-1.16,1.14h-9.03c.4,1.87,1.78,3.02,3.69,3.02,1.09,0,1.96-.29,2.83-.93.58-.43,1.39-.39,1.93.09.34.3.53.74.52,1.19s-.22.88-.57,1.16c-1.31,1.06-2.91,1.59-4.75,1.59-4.26,0-7.36-3.13-7.36-7.44v-.3c0-1.94.78-3.83,2.16-5.19,1.32-1.31,3.05-2.03,4.87-2.03h.04c4.73.03,6.84,3.89,6.84,7.71h0ZM109.24,27.73c-1.67,0-2.95,1.22-3.3,3.14h6.53c-.24-1.57-1.2-3.14-3.23-3.14h0ZM128.29,26.37c1.04,1.01,1.56,2.51,1.56,4.45v6.59c0,.91-.64,1.73-1.54,1.86-.96.13-1.81-.5-2.01-1.37-1.12,1.1-2.6,1.68-4.31,1.68-2.5,0-5.19-1.42-5.19-4.53v-.05c0-2.95,2.24-4.71,6-4.71,1.51,0,2.61.24,3.47.49h0c0-2.29-1.73-2.77-3.19-2.77-.94,0-1.79.13-2.69.41-.81.26-1.67-.18-1.96-.99-.16-.48-.1-.99.19-1.42.2-.3.52-.5.86-.62,1.28-.43,2.52-.63,4.01-.63,2.09,0,3.74.56,4.77,1.62h.01ZM123.44,32.8c-1.91,0-3,.75-3,2.06v.05c0,1.13.96,1.85,2.45,1.85,2,0,3.45-1.14,3.45-2.72v-.77c-.64-.23-1.62-.48-2.9-.48h0ZM137.65,36.16c-.15.02-.31.03-.47.03-1,0-1.45-.46-1.45-1.48v-6.55h2.11c.89,0,1.61-.72,1.61-1.61s-.72-1.61-1.61-1.61h-2.11v-1.96c0-1.02-.82-1.84-1.84-1.84s-1.84.82-1.84,1.84v1.96h-.14c-.89,0-1.61.72-1.61,1.61s.72,1.61,1.61,1.61h.14v7.05c0,2.86,1.43,4.32,4.24,4.32.76,0,1.42-.1,2.04-.31.64-.22,1.08-.82,1.08-1.49,0-.44-.19-.87-.52-1.16-.33-.3-.78-.44-1.23-.39h0Z"/>
      </g>
    </g>
  </g>
</svg>