<svg width="75" height="74" viewBox="0 0 75 74" fill="none" xmlns="http://www.w3.org/2000/svg">
<path d="M13.6232 51.1642C10.1802 45.3552 8.97584 38.4892 10.2363 31.8552C11.4968 25.2212 15.1354 19.2754 20.4691 15.134C25.8027 10.9927 32.4646 8.94054 39.2041 9.3629C45.9435 9.78527 52.2971 12.6531 57.072 17.4279C61.8468 22.2028 64.7146 28.5564 65.137 35.2958C65.5594 42.0353 63.5072 48.6972 59.3659 54.0309C55.2245 59.3645 49.2787 63.0031 42.6447 64.2636C36.0107 65.5241 29.1447 64.3197 23.3357 60.8767L13.7389 63.5939C13.3457 63.7089 12.9288 63.716 12.5319 63.6144C12.135 63.5129 11.7728 63.3065 11.4831 63.0168C11.1934 62.7272 10.987 62.3649 10.8855 61.968C10.7839 61.5711 10.7911 61.1542 10.9061 60.761L13.6232 51.1642Z" stroke="#4D657C" stroke-width="2" stroke-linecap="round" stroke-linejoin="round"/>
<path d="M44.4375 30.0625L30.5625 43.9375" stroke="#4D657C" stroke-width="2" stroke-linecap="round" stroke-linejoin="round"/>
<path d="M44.4375 43.9375L30.5625 30.0625" stroke="#4D657C" stroke-width="2" stroke-linecap="round" stroke-linejoin="round"/>
</svg>
