<?xml version="1.0" encoding="UTF-8"?>
<svg id="Layer_1" data-name="Layer 1" xmlns="http://www.w3.org/2000/svg" width="210" height="84" viewBox="0 0 210 84">
  <defs>
    <style>
      .cls-1 {
        fill: #000;
      }

      .cls-1, .cls-2 {
        stroke-width: 0px;
      }

      .cls-2 {
        fill: #ed0007;
        fill-rule: evenodd;
      }
    </style>
  </defs>
  <g id="logotype">
    <path id="logotype-b-47" class="cls-2" d="M93.81,41.46c1.92-.74,3.17-2.59,3.15-4.65,0-4.18-2.97-6.26-7.04-6.26h-10.69v22.75h11.62c3.58,0,7.08-2.5,7.08-6.33,0-4.55-4.11-5.47-4.11-5.51ZM84.8,35.28h4.15c1.12-.07,2.08.78,2.14,1.89,0,0,0,0,0,0,0,.08,0,.16,0,.25-.02,1.16-.98,2.09-2.15,2.08h-4.18l.04-4.22ZM88.98,48.54h-4.15v-4.47h4.04c2.04,0,3,.89,3,2.22,0,1.65-1.22,2.25-2.9,2.25Z"/>
    <path id="logotype-o-47" class="cls-2" d="M110.22,29.99c-6.58,0-10.44,5.26-10.44,11.91s3.86,11.91,10.44,11.91,10.44-5.22,10.44-11.91-3.83-11.91-10.44-11.91ZM110.22,48.36c-3.22,0-4.83-2.9-4.83-6.47s1.61-6.44,4.83-6.44,4.86,2.9,4.86,6.44c0,3.61-1.64,6.47-4.86,6.47Z"/>
    <path id="logotype-s-47" class="cls-2" d="M132.78,39.5l-.79-.18c-1.93-.39-3.47-.89-3.47-2.29,0-1.5,1.47-2.11,2.75-2.11,1.78.03,3.46.79,4.65,2.11l3.54-3.5c-1.61-1.82-4.22-3.58-8.29-3.58-4.79,0-8.44,2.68-8.44,7.15,0,4.08,2.93,6.08,6.51,6.83l.79.18c2.97.61,4.08,1.07,4.08,2.5s-1.22,2.25-3.07,2.25c-2.22,0-4.22-.97-5.76-2.93l-3.61,3.58c2,2.4,4.54,4.25,9.44,4.25,4.25,0,8.8-2.43,8.8-7.4.07-5.18-3.86-6.19-7.11-6.86Z"/>
    <path id="logotype-c-47" class="cls-2" d="M152.62,48.36c-2.5,0-5.11-2.07-5.11-6.61,0-4.04,2.43-6.29,4.97-6.29,2,0,3.18.93,4.11,2.54l4.58-3.04c-2.29-3.47-5.01-4.93-8.76-4.93-6.86,0-10.58,5.33-10.58,11.76,0,6.76,4.11,12.05,10.51,12.05,4.5,0,6.65-1.57,8.97-4.93l-4.61-3.1c-.93,1.49-1.93,2.57-4.08,2.57Z"/>
    <polygon id="logotype-h-47" class="cls-2" points="176.43 30.56 176.43 38.93 169.53 38.93 169.53 30.56 163.56 30.56 163.56 53.3 169.53 53.3 169.53 44.32 176.43 44.32 176.43 53.3 182.4 53.3 182.4 30.56 176.43 30.56"/>
  </g>
  <g id="symbol">
    <path class="cls-1" d="M44.83,24.77c-9.52,0-17.23,7.72-17.23,17.23s7.72,17.23,17.23,17.23,17.23-7.72,17.23-17.23-7.72-17.23-17.23-17.23t0,0ZM44.83,57.62c-8.63,0-15.62-7-15.62-15.62s7-15.62,15.62-15.62,15.62,7,15.62,15.62c0,8.63-7,15.62-15.62,15.62Z"/>
    <path class="cls-1" d="M51.94,31.24h-1.18v5.9h-11.83v-5.9h-1.22c-5.94,3.92-7.58,11.92-3.66,17.86.96,1.46,2.21,2.7,3.66,3.66h1.22v-5.89h11.83v5.9h1.18c5.94-3.92,7.59-11.91,3.67-17.85-.96-1.46-2.21-2.71-3.67-3.67h0ZM37.28,50.44c-4.66-4.14-5.08-11.28-.94-15.94,0,0,0,0,0,0,.3-.33.61-.64.94-.94v16.88ZM50.76,45.22h-11.83v-6.48h11.83v6.48ZM52.37,50.41v-3.58h0v-9.7h0v-3.58c4.65,4.18,5.03,11.33.86,15.98,0,0,0,0,0,0-.27.3-.56.58-.85.85h0Z"/>
  </g>
</svg>