<?xml version="1.0" encoding="UTF-8"?>
<svg id="Layer_1" data-name="Layer 1" xmlns="http://www.w3.org/2000/svg" width="210" height="84" viewBox="0 0 210 84">
  <defs>
    <style>
      .cls-1 {
        fill: #ed232a;
      }

      .cls-1, .cls-2, .cls-3 {
        stroke-width: 0px;
      }

      .cls-2 {
        fill: #004c8f;
      }

      .cls-3 {
        fill: #fff;
      }
    </style>
  </defs>
  <g id="layer1">
    <g id="g11008">
      <path id="path1556" class="cls-2" d="M21.98,28.1h165.39v27.56H21.98v-27.56h0Z"/>
      <path id="path1558" class="cls-2" d="M49.54,28.1h137.82v27.56H49.54v-27.56Z"/>
      <path id="path1560" class="cls-3" d="M58.31,48.4v-13.04h4.29v4.4h4.02v-4.4h4.3v13.04h-4.3v-5.06h-4.02v5.06h-4.29"/>
      <path id="path1562" class="cls-3" d="M77.7,38.6h1.11c.8,0,1.39.08,1.76.25.28.12.5.3.7.57.18.27.33.6.43,1.03.1.42.15.86.15,1.33,0,.76-.1,1.4-.33,1.92-.22.52-.53.89-.94,1.12-.41.23-1.01.34-1.81.34h-1.08s0-6.55,0-6.55ZM79.36,48.4h0c1.01,0,1.85-.08,2.54-.27.69-.18,1.25-.41,1.68-.69.44-.29.83-.68,1.2-1.16.36-.5.68-1.13.92-1.9.25-.77.37-1.63.37-2.61,0-1.43-.27-2.65-.83-3.66-.56-.99-1.32-1.71-2.3-2.13-.97-.42-2.13-.63-3.47-.63h-5.96v13.04h5.85"/>
      <path id="path1564" class="cls-3" d="M88.03,48.4v-13.04h10.17v3.22h-5.94v2.09h4.75v3.13h-4.75v4.61h-4.23"/>
      <path id="path1566" class="cls-3" d="M112.58,40.35h-4.05c-.08-.65-.31-1.16-.7-1.53-.4-.36-.89-.54-1.5-.54-.76,0-1.38.29-1.85.88-.48.59-.72,1.54-.72,2.85,0,.91.11,1.6.31,2.07.2.48.49.83.85,1.06.37.23.81.34,1.37.34.66,0,1.19-.17,1.57-.55.4-.36.62-.89.7-1.6h4.12c-.09.81-.25,1.49-.49,2.04-.23.55-.63,1.1-1.17,1.65-.55.56-1.21.99-1.97,1.29-.76.3-1.64.44-2.64.44s-1.92-.14-2.75-.43c-.85-.3-1.56-.72-2.13-1.25-.58-.55-1.03-1.17-1.35-1.86-.46-.98-.68-2.06-.68-3.26,0-1.01.16-1.96.49-2.83.33-.87.78-1.6,1.36-2.2.58-.59,1.22-1.04,1.92-1.33.89-.38,1.88-.56,2.97-.56.95,0,1.83.14,2.66.42.83.28,1.51.69,2.04,1.23.54.54.95,1.17,1.24,1.88.21.5.34,1.1.41,1.81"/>
      <path id="path1568" class="cls-3" d="M126.32,38.3c.61,0,1,.03,1.19.08.25.07.46.21.61.4.15.19.23.42.23.68,0,.33-.13.61-.38.81-.27.22-.73.32-1.39.32h-1.61v-2.3h1.36ZM127.4,48.4h0c1.02,0,1.73-.05,2.15-.14.41-.1.84-.25,1.27-.45.42-.22.75-.43.96-.66.33-.31.58-.68.76-1.13.18-.45.27-.97.27-1.52,0-.79-.19-1.43-.59-1.96-.4-.53-.93-.88-1.59-1.07,1.13-.71,1.7-1.64,1.7-2.76s-.5-2.05-1.49-2.65c-.76-.46-1.95-.7-3.56-.7h-6.47v13.04h6.59ZM126.71,42.94h0c.85,0,1.4.1,1.68.32.26.21.4.5.4.89s-.14.71-.42.93c-.27.23-.82.33-1.65.33h-1.75v-2.47h1.75"/>
      <path id="path1570" class="cls-3" d="M142.23,44.02h-2.73l1.34-4.74,1.38,4.74ZM138.22,48.4h0l.5-1.71h4.27l.5,1.71h4.27l-4.68-13.04h-4.36l-4.68,13.04h4.19"/>
      <path id="path1572" class="cls-3" d="M149.55,48.4v-13.04h4l4.51,6.98v-6.98h4.11v13.04h-4.08l-4.41-6.81v6.81h-4.12"/>
      <path id="path1574" class="cls-3" d="M165.03,48.4v-13.04h4.16v4.3l3.88-4.3h5.04l-4.78,4.91,5.27,8.13h-5.14l-3.14-5.19-1.14,1.13v4.07h-4.16"/>
      <path id="path1576" class="cls-1" d="M21.98,28.1h27.56v27.56h-27.56v-27.56Z"/>
      <path id="path1578" class="cls-3" d="M26.8,32.93h17.92v17.92h-17.92v-17.92Z"/>
      <path id="path1580" class="cls-3" d="M34.38,28.1h2.76v27.56h-2.76v-27.56Z"/>
      <path id="path1582" class="cls-3" d="M21.98,40.51h27.56v2.76h-27.56v-2.76Z"/>
      <path id="path1584" class="cls-2" d="M31.62,37.75h8.27v8.27h-8.27v-8.27Z"/>
    </g>
  </g>
</svg>