<?xml version="1.0" encoding="UTF-8"?>
<svg id="Layer_1" data-name="Layer 1" xmlns="http://www.w3.org/2000/svg" width="210" height="84" viewBox="0 0 210 84">
  <defs>
    <style>
      .cls-1 {
        fill: #c9323e;
      }

      .cls-1, .cls-2 {
        stroke-width: 0px;
      }

      .cls-2 {
        fill: #fff;
      }
    </style>
  </defs>
  <path class="cls-2" d="M140.77,28.69c-.77-2.53-2.07-5.75-4.53-8.36-1-1.07-2.61-2.45-4.83-2.61l-1.15-.15c-3.84-.23-7.83-.46-11.74-.46-3.61,0-7.44.15-12.12.54-3.68.31-8.06.69-12.43,1.46-4.45.77-8.98,1.76-13.2,2.76-3.07.77-5.98,1.84-8.59,3.3-2.38,1.3-3.84,3.22-4.3,5.68-.31,1.53-.54,2.99-.54,4.53,0,3.53.38,7.29,1.3,11.43.54,2.46,1.15,4.99,1.76,7.44.31,1.38.69,2.76,1,4.07.54,2.15,2.22,2.15,2.92,1.99.92-.15,1.84-.23,2.76-.38h.31c.69-.08,1.46-.15,2.15-.23.46,1.99,1.53,3.68,2.99,4.99,1.76,1.46,3.84,2.23,5.98,2.23.31,0,.69,0,1-.08,2.53-.31,4.76-1.46,6.37-3.45,1.3-1.61,1.99-3.68,2.07-5.83l16.34-1.84c.23,2.38,1.23,4.53,2.92,6.14,1.99,1.92,4.76,2.84,7.52,2.46,2.53-.31,4.68-1.46,6.21-3.45,1.69-2.15,2.3-4.6,1.92-7.29l.77-.08c1.69-.23,3.38-.38,5.06-.54,1.38-.15,1.92-1.15,2.07-1.46,1.07-2.22,1.61-4.76,1.76-7.98.38-5.06-.23-10.05-1.76-14.81ZM137.7,43.19c-.08,1.23-.38,2.46-.61,3.76-.08.46-.15.84-.31,1.3-2.07.23-4.14.46-5.98.69-2.07-2.53-5.14-3.84-8.29-3.45-3.07.38-5.75,2.23-7.29,5.06-1.76.15-3.53.38-5.29.61l-3.38.38c-1.92.23-3.76.46-5.68.69-.61.08-1.3.15-1.92.23-.77.08-1.46.15-2.22.23-2.07-3.38-5.22-5.06-9.21-4.76-3.53.23-6.9,3.15-7.9,6.67-1.15.08-2.38.23-3.91.46-.31-1.46-.69-2.84-1-4.3-.46-2.07-.92-4.14-1.38-6.21.15.08.38.15.61.15.46,0,.84.08,1.3.08h2.76v-7.6h.08c.46-.08,1,0,1.53,0h0c-.15,1.61.08,3.22.84,4.53,1.38,2.38,3.84,3.22,6.14,3.22,1.46,0,2.92-.31,3.91-.84.77-.38,1.07-1.15,1.15-1.76v-.84c.69,1.46,1.84,2.53,3.22,3.07,1.38.46,2.92.38,4.37-.31.84.69,1.92.54,2.46.54h.46l1.15.15h1.61c.77,0,1.46,0,2.22-.08,1.76,0,3.61-.08,5.37-.23,1.53-.15,2.76-1.07,3.53-2.38.54,1.38,1.69,2.3,3.38,2.61.31.08.69.08,1,.08.77,0,1.46-.15,2.07-.46v.31h3.38c.77.08,1.3-.15,1.76-.54l.08-.08.69.15c.31.08.61.15.92.23.69.15,1.46.31,2.22.38.38.08.77.08,1.07.08,1.46,0,2.61-.38,3.68-1.15.54-.46,1-1,1.38-1.53v.84ZM123.74,59.38c-2.46,0-4.37-1.84-4.37-4.37s1.92-4.37,4.3-4.37h0c1.15,0,2.3.46,3.15,1.3.84.84,1.3,1.92,1.3,3.07,0,2.46-1.92,4.37-4.37,4.37h0ZM84.31,57.15c.08-1.07.61-2.15,1.46-2.92.84-.69,1.84-1.07,2.84-1.07h.31c2.84.23,4.07,2.45,4.07,4.53h0c0,1.07-.46,2.15-1.3,2.99-.92.84-2.07,1.3-3.22,1.23-1.15-.08-2.22-.61-3.07-1.46-.77-.92-1.15-2.07-1.07-3.3ZM74.1,29.84c1.92-1.23,4.14-1.99,6.14-2.61,4.6-1.46,9.59-2.53,15.42-3.38,4.22-.61,7.9-1,11.35-1.23,4.91-.31,9.82-.54,14.58-.54,2.38,0,4.83.15,7.21.38.69,0,1.38.08,2.07.15.61.08,1.23.38,1.99,1.3,1.23,1.38,2.15,3.07,2.99,5.6.23.69.46,1.46.69,2.22-.23-.15-.46-.23-.69-.31l-.23-.08c-.84-.15-1.76-.31-2.76-.31h0c-1.76,0-3.22.69-4.37,1.92-.08.08-.08.15-.15.15l-.15-1.46h-5.6v7.52c-.08,0-.15.08-.38.15-.15.08-.31.08-.38,0,0-.08-.08-.15-.08-.38v-5.6l-.23-1.69h-5.06c-.08-.61-.23-1.15-.46-1.69-.69-1.38-1.92-2.3-3.53-2.46-1.76-.23-3.53-.15-5.22-.15-.69,0-1.46.08-2.22.08h-1v-.15h-5.75v3.99c-2.76-.23-4.91.77-6.21,2.92-.77-1.46-1.92-2.38-3.45-2.84-2.38-.77-4.83-.23-6.67,1.3-.31-.69-.92-1.23-1.61-1.3-.92-.15-1.76-.08-2.53.23v-.23l-4.91.31c0-.15.08-.31.08-.46.08-.31.23-.84,1.15-1.38ZM137.47,36.74c0,.15,0,.23.08.38,0,0,0-.08-.08-.08v-.31ZM128.34,38.82q0-.08,0,0,0-.08,0,0h0ZM115.45,35.44c.08-.15.23-.31.31-.46.08-.08.08-.15.15-.23v1.07c-.15-.15-.31-.31-.46-.38ZM110.24,33.52h-.54v-.92h.46c0,.08.08.23.08.61.08.23,0,.31,0,.31ZM109.7,38.05c.31,0,.61,0,.92.08.23,0,.23.54.23.69,0,.54-.08.54-.38.61h-.84v-1.38h.08ZM98.27,39.35c-.31.15-.61.15-.77,0-.23-.15-.38-.46-.38-.84-.08-.61,0-1.23.08-1.76,0-.15.08-.23.23-.31.08,0,.23-.08.38-.08s.31,0,.46.08v2.92Z"/>
  <g>
    <path class="cls-1" d="M96.43,56.15c.54,5.06-2.84,8.67-6.98,9.13-2.15.23-4.14-.46-5.83-1.84-1.69-1.38-2.53-3.22-2.76-5.45-1.23.15-2.45.23-3.61.38-1.07.15-2.15.23-3.22.38-.77.15-1-.15-1.15-.84-.92-3.84-1.92-7.6-2.76-11.51-.77-3.68-1.23-7.37-1.23-11.05,0-1.38.23-2.84.54-4.22.38-2.07,1.69-3.61,3.53-4.6,2.61-1.46,5.37-2.45,8.21-3.15,4.3-1.07,8.67-2.07,13.04-2.76,4.07-.69,8.21-1.07,12.35-1.46,3.99-.31,7.98-.54,11.97-.54,4.3,0,8.52.31,12.81.54,1.53.08,2.76,1,3.84,2.15,2.07,2.22,3.22,4.91,4.14,7.83,1.46,4.6,2.07,9.44,1.76,14.27-.15,2.53-.54,5.06-1.61,7.44-.15.38-.38.54-.84.61-2.15.23-4.3.46-6.44.69-.31.08-.69.08-1.07.15.84,2.76.54,5.37-1.3,7.6-1.3,1.69-3.07,2.61-5.14,2.84-4.45.54-9.13-2.92-8.75-8.82-6.52.77-12.97,1.53-19.49,2.22ZM70.65,35.75c.31,2.84.46,5.37.92,7.9.77,4.14,1.84,8.13,2.76,12.28.15.84.54.84,1.23.77,1.46-.23,2.99-.38,4.45-.54.61-.08.92-.23,1-.84.69-2.99,3.61-5.52,6.6-5.75,3.61-.31,6.21,1.23,7.98,4.3.23.38.38.54.84.46,1.53-.15,3.07-.31,4.6-.54,2.38-.31,4.68-.54,7.06-.84,2.53-.31,5.06-.61,7.67-.84.46-.08.61-.23.84-.61,2.53-5.29,9.51-6.06,13.2-1.46.31.38.54.46,1,.46,2.23-.23,4.37-.54,6.6-.77.46-.08.77-.23.84-.69.38-1.92.92-3.76,1-5.75.31-4.91-.38-9.67-1.92-14.27-.77-2.22-1.69-4.3-3.3-6.06-.84-.92-1.76-1.69-2.99-1.84-3.15-.23-6.29-.54-9.44-.54-4.91,0-9.82.23-14.65.54-3.84.23-7.67.69-11.43,1.23-5.29.77-10.59,1.84-15.65,3.45-2.22.69-4.53,1.53-6.52,2.84-.92.61-1.61,1.3-1.84,2.38-.38,1.61-.61,3.3-.84,4.76ZM123.74,60.91c3.3,0,5.91-2.61,5.91-5.83s-2.69-5.91-5.98-5.91-5.83,2.61-5.83,5.91,2.61,5.83,5.91,5.83ZM94.59,57.61c0-3.15-2.07-5.83-5.45-6.06-3.22-.23-6.14,2.3-6.29,5.45-.15,3.38,2.3,6.14,5.6,6.37,3.22.23,6.14-2.46,6.14-5.75Z"/>
    <path class="cls-1" d="M105.1,28.92c2.45,0,4.83-.23,7.21.08,2.84.38,3.15,3.53,2.22,5.22-.38.61-1.15,1-1.61,1.46.31.15.69.31,1.07.54,1.3.84,1.92,2.07,1.53,3.84-.31,1.61-1.3,2.84-2.92,3.07-2.46.31-4.99.23-7.44.31-.08-5.06-.08-9.82-.08-14.5ZM108.17,40.89c.84,0,1.69.08,2.53,0,1.15-.15,1.69-.84,1.69-2.07s-.54-2.15-1.61-2.3c-.84-.08-1.76,0-2.61,0v4.37ZM108.17,31.14v3.99h1.99c1.07,0,1.61-.69,1.69-1.69.08-1.3-.54-2.15-1.53-2.22-.77-.15-1.38-.08-2.15-.08Z"/>
    <path class="cls-1" d="M102.57,43.19c-1-.08-2.15.54-2.69-.92-.38.15-.61.31-.92.46-2.3,1.23-4.76.46-5.75-1.92-.84-1.92-.84-3.84.15-5.68,1.23-2.15,3.45-2.61,5.75-2.15.23.08.38.15.77.23v-4.37h2.69v14.35ZM99.8,37.9v-1.76c0-.23-.08-.46-.15-.61-1.07-.92-3.53-.92-3.91.92-.15.69-.23,1.46-.15,2.22.15,1.99,1.84,2.92,3.61,1.99.46-.23.77-.54.69-1.07-.15-.61-.08-1.15-.08-1.69Z"/>
    <path class="cls-1" d="M91.59,38.66h-7.44c.08,1.3,1,2.38,2.38,2.3,1.23-.08,2.46-.31,3.76-.54v1.84c0,.15-.15.38-.23.46-2.22,1.07-6.37,1.23-8.13-1.76-1.07-1.92-.92-4.76.38-6.44,1.38-1.76,3.68-2.46,5.91-1.76,1.69.54,2.61,1.84,3.07,3.53.15.77.15,1.46.31,2.38ZM88.76,37.28c.15-1.15-1-2.38-2.22-2.38-1.46-.08-2.46.84-2.46,2.38h4.68Z"/>
    <path class="cls-1" d="M124.12,43.27c-.08-.38-.08-.69-.08-1.07-.38.23-.77.38-1.07.54-.92.46-1.92.84-2.99.61-1.46-.31-2.38-1.15-2.45-2.69-.08-2.46,0-4.91,0-7.44h2.68v5.75c0,1.46.84,2.15,2.3,1.84,1.23-.23,1.61-.77,1.61-2.07v-5.52h2.69c0,.23.08.54.08.77v8.44c0,.61-.15.84-.84.84-.69-.08-1.3,0-1.92,0Z"/>
    <path class="cls-1" d="M128.8,42.81v-2.38c1.23.23,2.46.46,3.68.61.31.08.69,0,.92-.15.31-.23.77-.61.84-.92,0-.31-.38-.84-.77-.92-.77-.23-1.61-.31-2.38-.46-2.15-.46-2.92-3.07-1.46-4.68.84-1,1.92-1.38,3.22-1.38.92,0,1.84.15,2.76.31.15,0,.38.31.38.46.08.69,0,1.3,0,1.99-1-.15-1.99-.31-2.99-.46-.31,0-.61,0-.84.15-.31.15-.69.54-.61.77,0,.23.38.69.69.77.61.23,1.3.23,1.99.38,1.3.23,2.23.84,2.61,2.15.38,1.3-.23,2.76-1.3,3.61-1.07.84-2.38.92-3.68.77-1.07-.15-2.07-.46-3.07-.61Z"/>
    <path class="cls-1" d="M73.72,33.14c.92-.08,1.84-.15,2.76-.23,0,.31.08.54.08.92.38-.23.69-.31.92-.54.84-.54,1.69-.69,2.69-.54.23,0,.46.31.46.54.08.84,0,1.69,0,2.38-.92-.08-1.84-.23-2.76-.08-1.15.15-1.46.61-1.46,1.76v5.83h-2.38c-.15,0-.38-.46-.38-.61v-7.98c.08-.46.08-.92.08-1.46Z"/>
  </g>
</svg>