<svg width="17" height="18" viewBox="0 0 17 18" fill="none" xmlns="http://www.w3.org/2000/svg">
<path d="M8.49987 3.88889C10.0647 3.88889 11.1202 4.56482 11.7221 5.12964L14.0739 2.83334C12.6295 1.49075 10.7499 0.666672 8.49987 0.666672C5.24061 0.666672 2.42579 2.53704 1.05542 5.25926L3.74986 7.35186C4.42579 5.3426 6.29616 3.88889 8.49987 3.88889Z" fill="#EA4335"/>
<path d="M16.5 9.18515C16.5 8.49996 16.4444 7.99996 16.3241 7.48145H8.5V10.574H13.0926C13 11.3426 12.5 12.5 11.3889 13.2777L14.0185 15.3148C15.5926 13.8611 16.5 11.7222 16.5 9.18515Z" fill="#4285F4"/>
<path d="M3.75934 10.6483C3.58341 10.1297 3.48156 9.57418 3.48156 9.00011C3.48156 8.42604 3.58341 7.87048 3.75008 7.35196L1.05564 5.25937C0.490822 6.389 0.166748 7.65752 0.166748 9.00011C0.166748 10.3427 0.490822 11.6112 1.05564 12.7409L3.75934 10.6483Z" fill="#FBBC05"/>
<path d="M8.50037 17.3333C10.7504 17.3333 12.6393 16.5926 14.0189 15.3148L11.3893 13.2778C10.6856 13.7685 9.74111 14.1111 8.50037 14.1111C6.29667 14.1111 4.4263 12.6574 3.75963 10.6482L1.06519 12.7408C2.43556 15.463 5.24111 17.3333 8.50037 17.3333Z" fill="#34A853"/>
</svg>
