<svg xmlns="http://www.w3.org/2000/svg"  viewBox="0 0 24 24" width="24px" height="24px"><path d="M 12 1 C 7.6184275 1 3.8385161 3.5724685 2.0722656 7.2851562 A 0.50005 0.50005 0 1 0 2.9746094 7.7148438 C 4.5803589 4.3395315 8.0095725 2 12 2 C 15.990427 2 19.419641 4.3395315 21.025391 7.7148438 A 0.50005 0.50005 0 1 0 21.927734 7.2851562 C 20.161484 3.5724685 16.381573 1 12 1 z M 12 4 C 10.596 4 9.2778594 4.364 8.1308594 5 L 9 5 L 11 5 C 12.105 5 13 5.895 13 7 C 13 8.105 12.105 9 11 9 L 9 9 L 9 12 L 11 12 L 12 15.5 L 13 12 L 14 12 L 15 12 L 16 15.5 L 17 12 L 18 12 L 16.027344 18.904297 C 18.401344 17.517297 20 14.948 20 12 C 20 7.582 16.418 4 12 4 z M 9 12 L 7 12 L 7 5.7597656 C 5.173 7.2267656 4 9.475 4 12 C 4 16.418 7.582 20 12 20 C 13.404 20 14.722141 19.636 15.869141 19 L 15.652344 19 L 15 19 L 13.5 13.75 L 12 19 L 11.652344 19 L 11 19 L 9 12 z M 9 6 L 9 8 L 10 8 C 10.552 8 11 7.552 11 7 C 11 6.448 10.552 6 10 6 L 9 6 z M 21.460938 15.984375 A 0.50005 0.50005 0 0 0 21.025391 16.285156 C 19.419641 19.660468 15.990427 22 12 22 C 8.0095725 22 4.5803589 19.660468 2.9746094 16.285156 A 0.50005 0.50005 0 0 0 2.4921875 15.994141 A 0.50005 0.50005 0 0 0 2.0722656 16.714844 C 3.8385161 20.427532 7.6184275 23 12 23 C 16.381573 23 20.161484 20.427532 21.927734 16.714844 A 0.50005 0.50005 0 0 0 21.460938 15.984375 z"/></svg>